<svg xmlns="http://www.w3.org/2000/svg" version="1.1" xmlns:xlink="http://www.w3.org/1999/xlink" xmlns:svgjs="http://svgjs.dev/svgjs" viewBox="0 0 800 800" opacity="0.66" width="800" height="800"><g stroke-width="4.5" stroke="#2d6acdff" fill="none"><rect width="17.63157894736842" height="17.63157894736842" x="-8.81578947368421" y="-8.81578947368421" fill="#2d6acdff" stroke="none"></rect><rect width="17.63157894736842" height="17.63157894736842" x="57.85087719298246" y="-8.81578947368421" fill="#a4b0e6ff" stroke="none"></rect><rect width="17.63157894736842" height="17.63157894736842" x="124.51754385964914" y="-8.81578947368421" fill="#2d6acdff" stroke="none"></rect><rect width="17.63157894736842" height="17.63157894736842" x="191.18421052631578" y="-8.81578947368421" fill="#a4b0e6ff" stroke="none"></rect><rect width="17.63157894736842" height="17.63157894736842" x="257.85087719298247" y="-8.81578947368421" fill="#2d6acdff" stroke="none"></rect><rect width="17.63157894736842" height="17.63157894736842" x="324.51754385964915" y="-8.81578947368421" fill="#a4b0e6ff" stroke="none"></rect><rect width="17.63157894736842" height="17.63157894736842" x="391.18421052631584" y="-8.81578947368421" fill="#2d6acdff" stroke="none"></rect><rect width="17.63157894736842" height="17.63157894736842" x="457.8508771929825" y="-8.81578947368421" fill="#a4b0e6ff" stroke="none"></rect><rect width="17.63157894736842" height="17.63157894736842" x="524.5175438596492" y="-8.81578947368421" fill="#2d6acdff" stroke="none"></rect><rect width="17.63157894736842" height="17.63157894736842" x="591.1842105263158" y="-8.81578947368421" fill="#a4b0e6ff" stroke="none"></rect><rect width="17.63157894736842" height="17.63157894736842" x="657.8508771929825" y="-8.81578947368421" fill="#2d6acdff" stroke="none"></rect><rect width="17.63157894736842" height="17.63157894736842" x="724.5175438596491" y="-8.81578947368421" fill="#a4b0e6ff" stroke="none"></rect><rect width="17.63157894736842" height="17.63157894736842" x="791.1842105263157" y="-8.81578947368421" fill="#2d6acdff" stroke="none"></rect><rect width="17.63157894736842" height="17.63157894736842" x="-8.81578947368421" y="57.85087719298246" fill="#a4b0e6ff" stroke="none"></rect><rect width="17.63157894736842" height="17.63157894736842" x="57.85087719298246" y="57.85087719298246" fill="#2d6acdff" stroke="none"></rect><rect width="17.63157894736842" height="17.63157894736842" x="124.51754385964914" y="57.85087719298246" fill="#a4b0e6ff" stroke="none"></rect><rect width="17.63157894736842" height="17.63157894736842" x="191.18421052631578" y="57.85087719298246" fill="#2d6acdff" stroke="none"></rect><rect width="17.63157894736842" height="17.63157894736842" x="257.85087719298247" y="57.85087719298246" fill="#a4b0e6ff" stroke="none"></rect><rect width="17.63157894736842" height="17.63157894736842" x="324.51754385964915" y="57.85087719298246" fill="#2d6acdff" stroke="none"></rect><rect width="17.63157894736842" height="17.63157894736842" x="391.18421052631584" y="57.85087719298246" fill="#a4b0e6ff" stroke="none"></rect><rect width="17.63157894736842" height="17.63157894736842" x="457.8508771929825" y="57.85087719298246" fill="#2d6acdff" stroke="none"></rect><rect width="17.63157894736842" height="17.63157894736842" x="524.5175438596492" y="57.85087719298246" fill="#a4b0e6ff" stroke="none"></rect><rect width="17.63157894736842" height="17.63157894736842" x="591.1842105263158" y="57.85087719298246" fill="#2d6acdff" stroke="none"></rect><rect width="17.63157894736842" height="17.63157894736842" x="657.8508771929825" y="57.85087719298246" fill="#a4b0e6ff" stroke="none"></rect><rect width="17.63157894736842" height="17.63157894736842" x="724.5175438596491" y="57.85087719298246" fill="#2d6acdff" stroke="none"></rect><rect width="17.63157894736842" height="17.63157894736842" x="791.1842105263157" y="57.85087719298246" fill="#a4b0e6ff" stroke="none"></rect><rect width="17.63157894736842" height="17.63157894736842" x="-8.81578947368421" y="124.51754385964914" fill="#2d6acdff" stroke="none"></rect><rect width="17.63157894736842" height="17.63157894736842" x="57.85087719298246" y="124.51754385964914" fill="#a4b0e6ff" stroke="none"></rect><rect width="17.63157894736842" height="17.63157894736842" x="124.51754385964914" y="124.51754385964914" fill="#2d6acdff" stroke="none"></rect><rect width="17.63157894736842" height="17.63157894736842" x="191.18421052631578" y="124.51754385964914" fill="#a4b0e6ff" stroke="none"></rect><rect width="17.63157894736842" height="17.63157894736842" x="257.85087719298247" y="124.51754385964914" fill="#2d6acdff" stroke="none"></rect><rect width="17.63157894736842" height="17.63157894736842" x="324.51754385964915" y="124.51754385964914" fill="#a4b0e6ff" stroke="none"></rect><rect width="17.63157894736842" height="17.63157894736842" x="391.18421052631584" y="124.51754385964914" fill="#2d6acdff" stroke="none"></rect><rect width="17.63157894736842" height="17.63157894736842" x="457.8508771929825" y="124.51754385964914" fill="#a4b0e6ff" stroke="none"></rect><rect width="17.63157894736842" height="17.63157894736842" x="524.5175438596492" y="124.51754385964914" fill="#2d6acdff" stroke="none"></rect><rect width="17.63157894736842" height="17.63157894736842" x="591.1842105263158" y="124.51754385964914" fill="#a4b0e6ff" stroke="none"></rect><rect width="17.63157894736842" height="17.63157894736842" x="657.8508771929825" y="124.51754385964914" fill="#2d6acdff" stroke="none"></rect><rect width="17.63157894736842" height="17.63157894736842" x="724.5175438596491" y="124.51754385964914" fill="#a4b0e6ff" stroke="none"></rect><rect width="17.63157894736842" height="17.63157894736842" x="791.1842105263157" y="124.51754385964914" fill="#2d6acdff" stroke="none"></rect><rect width="17.63157894736842" height="17.63157894736842" x="-8.81578947368421" y="191.18421052631578" fill="#a4b0e6ff" stroke="none"></rect><rect width="17.63157894736842" height="17.63157894736842" x="57.85087719298246" y="191.18421052631578" fill="#2d6acdff" stroke="none"></rect><rect width="17.63157894736842" height="17.63157894736842" x="124.51754385964914" y="191.18421052631578" fill="#a4b0e6ff" stroke="none"></rect><rect width="17.63157894736842" height="17.63157894736842" x="191.18421052631578" y="191.18421052631578" fill="#2d6acdff" stroke="none"></rect><rect width="17.63157894736842" height="17.63157894736842" x="257.85087719298247" y="191.18421052631578" fill="#a4b0e6ff" stroke="none"></rect><rect width="17.63157894736842" height="17.63157894736842" x="324.51754385964915" y="191.18421052631578" fill="#2d6acdff" stroke="none"></rect><rect width="17.63157894736842" height="17.63157894736842" x="391.18421052631584" y="191.18421052631578" fill="#a4b0e6ff" stroke="none"></rect><rect width="17.63157894736842" height="17.63157894736842" x="457.8508771929825" y="191.18421052631578" fill="#2d6acdff" stroke="none"></rect><rect width="17.63157894736842" height="17.63157894736842" x="524.5175438596492" y="191.18421052631578" fill="#a4b0e6ff" stroke="none"></rect><rect width="17.63157894736842" height="17.63157894736842" x="591.1842105263158" y="191.18421052631578" fill="#2d6acdff" stroke="none"></rect><rect width="17.63157894736842" height="17.63157894736842" x="657.8508771929825" y="191.18421052631578" fill="#a4b0e6ff" stroke="none"></rect><rect width="17.63157894736842" height="17.63157894736842" x="724.5175438596491" y="191.18421052631578" fill="#2d6acdff" stroke="none"></rect><rect width="17.63157894736842" height="17.63157894736842" x="791.1842105263157" y="191.18421052631578" fill="#a4b0e6ff" stroke="none"></rect><rect width="17.63157894736842" height="17.63157894736842" x="-8.81578947368421" y="257.85087719298247" fill="#2d6acdff" stroke="none"></rect><rect width="17.63157894736842" height="17.63157894736842" x="57.85087719298246" y="257.85087719298247" fill="#a4b0e6ff" stroke="none"></rect><rect width="17.63157894736842" height="17.63157894736842" x="124.51754385964914" y="257.85087719298247" fill="#2d6acdff" stroke="none"></rect><rect width="17.63157894736842" height="17.63157894736842" x="191.18421052631578" y="257.85087719298247" fill="#a4b0e6ff" stroke="none"></rect><rect width="17.63157894736842" height="17.63157894736842" x="257.85087719298247" y="257.85087719298247" fill="#2d6acdff" stroke="none"></rect><rect width="17.63157894736842" height="17.63157894736842" x="324.51754385964915" y="257.85087719298247" fill="#a4b0e6ff" stroke="none"></rect><rect width="17.63157894736842" height="17.63157894736842" x="391.18421052631584" y="257.85087719298247" fill="#2d6acdff" stroke="none"></rect><rect width="17.63157894736842" height="17.63157894736842" x="457.8508771929825" y="257.85087719298247" fill="#a4b0e6ff" stroke="none"></rect><rect width="17.63157894736842" height="17.63157894736842" x="524.5175438596492" y="257.85087719298247" fill="#2d6acdff" stroke="none"></rect><rect width="17.63157894736842" height="17.63157894736842" x="591.1842105263158" y="257.85087719298247" fill="#a4b0e6ff" stroke="none"></rect><rect width="17.63157894736842" height="17.63157894736842" x="657.8508771929825" y="257.85087719298247" fill="#2d6acdff" stroke="none"></rect><rect width="17.63157894736842" height="17.63157894736842" x="724.5175438596491" y="257.85087719298247" fill="#a4b0e6ff" stroke="none"></rect><rect width="17.63157894736842" height="17.63157894736842" x="791.1842105263157" y="257.85087719298247" fill="#2d6acdff" stroke="none"></rect><rect width="17.63157894736842" height="17.63157894736842" x="-8.81578947368421" y="324.51754385964915" fill="#a4b0e6ff" stroke="none"></rect><rect width="17.63157894736842" height="17.63157894736842" x="57.85087719298246" y="324.51754385964915" fill="#2d6acdff" stroke="none"></rect><rect width="17.63157894736842" height="17.63157894736842" x="124.51754385964914" y="324.51754385964915" fill="#a4b0e6ff" stroke="none"></rect><rect width="17.63157894736842" height="17.63157894736842" x="191.18421052631578" y="324.51754385964915" fill="#2d6acdff" stroke="none"></rect><rect width="17.63157894736842" height="17.63157894736842" x="257.85087719298247" y="324.51754385964915" fill="#a4b0e6ff" stroke="none"></rect><rect width="17.63157894736842" height="17.63157894736842" x="324.51754385964915" y="324.51754385964915" fill="#2d6acdff" stroke="none"></rect><rect width="17.63157894736842" height="17.63157894736842" x="391.18421052631584" y="324.51754385964915" fill="#a4b0e6ff" stroke="none"></rect><rect width="17.63157894736842" height="17.63157894736842" x="457.8508771929825" y="324.51754385964915" fill="#2d6acdff" stroke="none"></rect><rect width="17.63157894736842" height="17.63157894736842" x="524.5175438596492" y="324.51754385964915" fill="#a4b0e6ff" stroke="none"></rect><rect width="17.63157894736842" height="17.63157894736842" x="591.1842105263158" y="324.51754385964915" fill="#2d6acdff" stroke="none"></rect><rect width="17.63157894736842" height="17.63157894736842" x="657.8508771929825" y="324.51754385964915" fill="#a4b0e6ff" stroke="none"></rect><rect width="17.63157894736842" height="17.63157894736842" x="724.5175438596491" y="324.51754385964915" fill="#2d6acdff" stroke="none"></rect><rect width="17.63157894736842" height="17.63157894736842" x="791.1842105263157" y="324.51754385964915" fill="#a4b0e6ff" stroke="none"></rect><rect width="17.63157894736842" height="17.63157894736842" x="-8.81578947368421" y="391.18421052631584" fill="#2d6acdff" stroke="none"></rect><rect width="17.63157894736842" height="17.63157894736842" x="57.85087719298246" y="391.18421052631584" fill="#a4b0e6ff" stroke="none"></rect><rect width="17.63157894736842" height="17.63157894736842" x="124.51754385964914" y="391.18421052631584" fill="#2d6acdff" stroke="none"></rect><rect width="17.63157894736842" height="17.63157894736842" x="191.18421052631578" y="391.18421052631584" fill="#a4b0e6ff" stroke="none"></rect><rect width="17.63157894736842" height="17.63157894736842" x="257.85087719298247" y="391.18421052631584" fill="#2d6acdff" stroke="none"></rect><rect width="17.63157894736842" height="17.63157894736842" x="324.51754385964915" y="391.18421052631584" fill="#a4b0e6ff" stroke="none"></rect><rect width="17.63157894736842" height="17.63157894736842" x="391.18421052631584" y="391.18421052631584" fill="#2d6acdff" stroke="none"></rect><rect width="17.63157894736842" height="17.63157894736842" x="457.8508771929825" y="391.18421052631584" fill="#a4b0e6ff" stroke="none"></rect><rect width="17.63157894736842" height="17.63157894736842" x="524.5175438596492" y="391.18421052631584" fill="#2d6acdff" stroke="none"></rect><rect width="17.63157894736842" height="17.63157894736842" x="591.1842105263158" y="391.18421052631584" fill="#a4b0e6ff" stroke="none"></rect><rect width="17.63157894736842" height="17.63157894736842" x="657.8508771929825" y="391.18421052631584" fill="#2d6acdff" stroke="none"></rect><rect width="17.63157894736842" height="17.63157894736842" x="724.5175438596491" y="391.18421052631584" fill="#a4b0e6ff" stroke="none"></rect><rect width="17.63157894736842" height="17.63157894736842" x="791.1842105263157" y="391.18421052631584" fill="#2d6acdff" stroke="none"></rect><rect width="17.63157894736842" height="17.63157894736842" x="-8.81578947368421" y="457.8508771929825" fill="#a4b0e6ff" stroke="none"></rect><rect width="17.63157894736842" height="17.63157894736842" x="57.85087719298246" y="457.8508771929825" fill="#2d6acdff" stroke="none"></rect><rect width="17.63157894736842" height="17.63157894736842" x="124.51754385964914" y="457.8508771929825" fill="#a4b0e6ff" stroke="none"></rect><rect width="17.63157894736842" height="17.63157894736842" x="191.18421052631578" y="457.8508771929825" fill="#2d6acdff" stroke="none"></rect><rect width="17.63157894736842" height="17.63157894736842" x="257.85087719298247" y="457.8508771929825" fill="#a4b0e6ff" stroke="none"></rect><rect width="17.63157894736842" height="17.63157894736842" x="324.51754385964915" y="457.8508771929825" fill="#2d6acdff" stroke="none"></rect><rect width="17.63157894736842" height="17.63157894736842" x="391.18421052631584" y="457.8508771929825" fill="#a4b0e6ff" stroke="none"></rect><rect width="17.63157894736842" height="17.63157894736842" x="457.8508771929825" y="457.8508771929825" fill="#2d6acdff" stroke="none"></rect><rect width="17.63157894736842" height="17.63157894736842" x="524.5175438596492" y="457.8508771929825" fill="#a4b0e6ff" stroke="none"></rect><rect width="17.63157894736842" height="17.63157894736842" x="591.1842105263158" y="457.8508771929825" fill="#2d6acdff" stroke="none"></rect><rect width="17.63157894736842" height="17.63157894736842" x="657.8508771929825" y="457.8508771929825" fill="#a4b0e6ff" stroke="none"></rect><rect width="17.63157894736842" height="17.63157894736842" x="724.5175438596491" y="457.8508771929825" fill="#2d6acdff" stroke="none"></rect><rect width="17.63157894736842" height="17.63157894736842" x="791.1842105263157" y="457.8508771929825" fill="#a4b0e6ff" stroke="none"></rect><rect width="17.63157894736842" height="17.63157894736842" x="-8.81578947368421" y="524.5175438596492" fill="#2d6acdff" stroke="none"></rect><rect width="17.63157894736842" height="17.63157894736842" x="57.85087719298246" y="524.5175438596492" fill="#a4b0e6ff" stroke="none"></rect><rect width="17.63157894736842" height="17.63157894736842" x="124.51754385964914" y="524.5175438596492" fill="#2d6acdff" stroke="none"></rect><rect width="17.63157894736842" height="17.63157894736842" x="191.18421052631578" y="524.5175438596492" fill="#a4b0e6ff" stroke="none"></rect><rect width="17.63157894736842" height="17.63157894736842" x="257.85087719298247" y="524.5175438596492" fill="#2d6acdff" stroke="none"></rect><rect width="17.63157894736842" height="17.63157894736842" x="324.51754385964915" y="524.5175438596492" fill="#a4b0e6ff" stroke="none"></rect><rect width="17.63157894736842" height="17.63157894736842" x="391.18421052631584" y="524.5175438596492" fill="#2d6acdff" stroke="none"></rect><rect width="17.63157894736842" height="17.63157894736842" x="457.8508771929825" y="524.5175438596492" fill="#a4b0e6ff" stroke="none"></rect><rect width="17.63157894736842" height="17.63157894736842" x="524.5175438596492" y="524.5175438596492" fill="#2d6acdff" stroke="none"></rect><rect width="17.63157894736842" height="17.63157894736842" x="591.1842105263158" y="524.5175438596492" fill="#a4b0e6ff" stroke="none"></rect><rect width="17.63157894736842" height="17.63157894736842" x="657.8508771929825" y="524.5175438596492" fill="#2d6acdff" stroke="none"></rect><rect width="17.63157894736842" height="17.63157894736842" x="724.5175438596491" y="524.5175438596492" fill="#a4b0e6ff" stroke="none"></rect><rect width="17.63157894736842" height="17.63157894736842" x="791.1842105263157" y="524.5175438596492" fill="#2d6acdff" stroke="none"></rect><rect width="17.63157894736842" height="17.63157894736842" x="-8.81578947368421" y="591.1842105263158" fill="#a4b0e6ff" stroke="none"></rect><rect width="17.63157894736842" height="17.63157894736842" x="57.85087719298246" y="591.1842105263158" fill="#2d6acdff" stroke="none"></rect><rect width="17.63157894736842" height="17.63157894736842" x="124.51754385964914" y="591.1842105263158" fill="#a4b0e6ff" stroke="none"></rect><rect width="17.63157894736842" height="17.63157894736842" x="191.18421052631578" y="591.1842105263158" fill="#2d6acdff" stroke="none"></rect><rect width="17.63157894736842" height="17.63157894736842" x="257.85087719298247" y="591.1842105263158" fill="#a4b0e6ff" stroke="none"></rect><rect width="17.63157894736842" height="17.63157894736842" x="324.51754385964915" y="591.1842105263158" fill="#2d6acdff" stroke="none"></rect><rect width="17.63157894736842" height="17.63157894736842" x="391.18421052631584" y="591.1842105263158" fill="#a4b0e6ff" stroke="none"></rect><rect width="17.63157894736842" height="17.63157894736842" x="457.8508771929825" y="591.1842105263158" fill="#2d6acdff" stroke="none"></rect><rect width="17.63157894736842" height="17.63157894736842" x="524.5175438596492" y="591.1842105263158" fill="#a4b0e6ff" stroke="none"></rect><rect width="17.63157894736842" height="17.63157894736842" x="591.1842105263158" y="591.1842105263158" fill="#2d6acdff" stroke="none"></rect><rect width="17.63157894736842" height="17.63157894736842" x="657.8508771929825" y="591.1842105263158" fill="#a4b0e6ff" stroke="none"></rect><rect width="17.63157894736842" height="17.63157894736842" x="724.5175438596491" y="591.1842105263158" fill="#2d6acdff" stroke="none"></rect><rect width="17.63157894736842" height="17.63157894736842" x="791.1842105263157" y="591.1842105263158" fill="#a4b0e6ff" stroke="none"></rect><rect width="17.63157894736842" height="17.63157894736842" x="-8.81578947368421" y="657.8508771929825" fill="#2d6acdff" stroke="none"></rect><rect width="17.63157894736842" height="17.63157894736842" x="57.85087719298246" y="657.8508771929825" fill="#a4b0e6ff" stroke="none"></rect><rect width="17.63157894736842" height="17.63157894736842" x="124.51754385964914" y="657.8508771929825" fill="#2d6acdff" stroke="none"></rect><rect width="17.63157894736842" height="17.63157894736842" x="191.18421052631578" y="657.8508771929825" fill="#a4b0e6ff" stroke="none"></rect><rect width="17.63157894736842" height="17.63157894736842" x="257.85087719298247" y="657.8508771929825" fill="#2d6acdff" stroke="none"></rect><rect width="17.63157894736842" height="17.63157894736842" x="324.51754385964915" y="657.8508771929825" fill="#a4b0e6ff" stroke="none"></rect><rect width="17.63157894736842" height="17.63157894736842" x="391.18421052631584" y="657.8508771929825" fill="#2d6acdff" stroke="none"></rect><rect width="17.63157894736842" height="17.63157894736842" x="457.8508771929825" y="657.8508771929825" fill="#a4b0e6ff" stroke="none"></rect><rect width="17.63157894736842" height="17.63157894736842" x="524.5175438596492" y="657.8508771929825" fill="#2d6acdff" stroke="none"></rect><rect width="17.63157894736842" height="17.63157894736842" x="591.1842105263158" y="657.8508771929825" fill="#a4b0e6ff" stroke="none"></rect><rect width="17.63157894736842" height="17.63157894736842" x="657.8508771929825" y="657.8508771929825" fill="#2d6acdff" stroke="none"></rect><rect width="17.63157894736842" height="17.63157894736842" x="724.5175438596491" y="657.8508771929825" fill="#a4b0e6ff" stroke="none"></rect><rect width="17.63157894736842" height="17.63157894736842" x="791.1842105263157" y="657.8508771929825" fill="#2d6acdff" stroke="none"></rect><rect width="17.63157894736842" height="17.63157894736842" x="-8.81578947368421" y="724.5175438596491" fill="#a4b0e6ff" stroke="none"></rect><rect width="17.63157894736842" height="17.63157894736842" x="57.85087719298246" y="724.5175438596491" fill="#2d6acdff" stroke="none"></rect><rect width="17.63157894736842" height="17.63157894736842" x="124.51754385964914" y="724.5175438596491" fill="#a4b0e6ff" stroke="none"></rect><rect width="17.63157894736842" height="17.63157894736842" x="191.18421052631578" y="724.5175438596491" fill="#2d6acdff" stroke="none"></rect><rect width="17.63157894736842" height="17.63157894736842" x="257.85087719298247" y="724.5175438596491" fill="#a4b0e6ff" stroke="none"></rect><rect width="17.63157894736842" height="17.63157894736842" x="324.51754385964915" y="724.5175438596491" fill="#2d6acdff" stroke="none"></rect><rect width="17.63157894736842" height="17.63157894736842" x="391.18421052631584" y="724.5175438596491" fill="#a4b0e6ff" stroke="none"></rect><rect width="17.63157894736842" height="17.63157894736842" x="457.8508771929825" y="724.5175438596491" fill="#2d6acdff" stroke="none"></rect><rect width="17.63157894736842" height="17.63157894736842" x="524.5175438596492" y="724.5175438596491" fill="#a4b0e6ff" stroke="none"></rect><rect width="17.63157894736842" height="17.63157894736842" x="591.1842105263158" y="724.5175438596491" fill="#2d6acdff" stroke="none"></rect><rect width="17.63157894736842" height="17.63157894736842" x="657.8508771929825" y="724.5175438596491" fill="#a4b0e6ff" stroke="none"></rect><rect width="17.63157894736842" height="17.63157894736842" x="724.5175438596491" y="724.5175438596491" fill="#2d6acdff" stroke="none"></rect><rect width="17.63157894736842" height="17.63157894736842" x="791.1842105263157" y="724.5175438596491" fill="#a4b0e6ff" stroke="none"></rect><rect width="17.63157894736842" height="17.63157894736842" x="-8.81578947368421" y="791.1842105263157" fill="#2d6acdff" stroke="none"></rect><rect width="17.63157894736842" height="17.63157894736842" x="57.85087719298246" y="791.1842105263157" fill="#a4b0e6ff" stroke="none"></rect><rect width="17.63157894736842" height="17.63157894736842" x="124.51754385964914" y="791.1842105263157" fill="#2d6acdff" stroke="none"></rect><rect width="17.63157894736842" height="17.63157894736842" x="191.18421052631578" y="791.1842105263157" fill="#a4b0e6ff" stroke="none"></rect><rect width="17.63157894736842" height="17.63157894736842" x="257.85087719298247" y="791.1842105263157" fill="#2d6acdff" stroke="none"></rect><rect width="17.63157894736842" height="17.63157894736842" x="324.51754385964915" y="791.1842105263157" fill="#a4b0e6ff" stroke="none"></rect><rect width="17.63157894736842" height="17.63157894736842" x="391.18421052631584" y="791.1842105263157" fill="#2d6acdff" stroke="none"></rect><rect width="17.63157894736842" height="17.63157894736842" x="457.8508771929825" y="791.1842105263157" fill="#a4b0e6ff" stroke="none"></rect><rect width="17.63157894736842" height="17.63157894736842" x="524.5175438596492" y="791.1842105263157" fill="#2d6acdff" stroke="none"></rect><rect width="17.63157894736842" height="17.63157894736842" x="591.1842105263158" y="791.1842105263157" fill="#a4b0e6ff" stroke="none"></rect><rect width="17.63157894736842" height="17.63157894736842" x="657.8508771929825" y="791.1842105263157" fill="#2d6acdff" stroke="none"></rect><rect width="17.63157894736842" height="17.63157894736842" x="724.5175438596491" y="791.1842105263157" fill="#a4b0e6ff" stroke="none"></rect><rect width="17.63157894736842" height="17.63157894736842" x="791.1842105263157" y="791.1842105263157" fill="#2d6acdff" stroke="none"></rect></g></svg>