<svg width="368" height="247" viewBox="0 0 368 247" fill="none" xmlns="http://www.w3.org/2000/svg">
<path d="M337.328 0.25L0.195312 76.1875L21.5328 226.188L337.328 64.9375V0.25Z" fill="#FDC298"/>
<path d="M365.777 19L28.6445 94.9375L49.982 244.938L365.777 83.6875V19Z" stroke="#39E4A7" stroke-width="2.5" stroke-linecap="round" stroke-linejoin="round"/>
<path d="M37.808 143V81.4H63.152C67.024 81.4 70.4267 82.192 73.36 83.776C76.352 85.3013 78.6693 87.472 80.312 90.288C82.0133 93.104 82.864 96.448 82.864 100.32V101.552C82.864 105.365 81.984 108.709 80.224 111.584C78.5227 114.4 76.176 116.6 73.184 118.184C70.2507 119.709 66.9067 120.472 63.152 120.472H49.424V143H37.808ZM49.424 109.912H62.008C64.7653 109.912 66.9947 109.149 68.696 107.624C70.3973 106.099 71.248 104.016 71.248 101.376V100.496C71.248 97.856 70.3973 95.7733 68.696 94.248C66.9947 92.7227 64.7653 91.96 62.008 91.96H49.424V109.912ZM88.7694 143V99.352H99.6814V104.28H101.265C101.911 102.52 102.967 101.229 104.433 100.408C105.959 99.5867 107.719 99.176 109.713 99.176H114.993V109.032H109.537C106.721 109.032 104.404 109.795 102.585 111.32C100.767 112.787 99.8574 115.075 99.8574 118.184V143H88.7694ZM140.381 144.232C136.04 144.232 132.138 143.352 128.677 141.592C125.216 139.832 122.488 137.28 120.493 133.936C118.498 130.592 117.501 126.573 117.501 121.88V120.472C117.501 115.779 118.498 111.76 120.493 108.416C122.488 105.072 125.216 102.52 128.677 100.76C132.138 99 136.04 98.12 140.381 98.12C144.722 98.12 148.624 99 152.085 100.76C155.546 102.52 158.274 105.072 160.269 108.416C162.264 111.76 163.261 115.779 163.261 120.472V121.88C163.261 126.573 162.264 130.592 160.269 133.936C158.274 137.28 155.546 139.832 152.085 141.592C148.624 143.352 144.722 144.232 140.381 144.232ZM140.381 134.376C143.784 134.376 146.6 133.291 148.829 131.12C151.058 128.891 152.173 125.723 152.173 121.616V120.736C152.173 116.629 151.058 113.491 148.829 111.32C146.658 109.091 143.842 107.976 140.381 107.976C136.978 107.976 134.162 109.091 131.933 111.32C129.704 113.491 128.589 116.629 128.589 120.736V121.616C128.589 125.723 129.704 128.891 131.933 131.12C134.162 133.291 136.978 134.376 140.381 134.376ZM162.9 160.6V151.096H168.708C170.351 151.096 171.172 150.216 171.172 148.456V99.352H182.26V150.744C182.26 153.736 181.38 156.112 179.62 157.872C177.86 159.691 175.513 160.6 172.58 160.6H162.9ZM176.716 94.248C174.721 94.248 173.02 93.6027 171.612 92.312C170.263 91.0213 169.588 89.32 169.588 87.208C169.588 85.096 170.263 83.3947 171.612 82.104C173.02 80.8133 174.721 80.168 176.716 80.168C178.769 80.168 180.471 80.8133 181.82 82.104C183.169 83.3947 183.844 85.096 183.844 87.208C183.844 89.32 183.169 91.0213 181.82 92.312C180.471 93.6027 178.769 94.248 176.716 94.248ZM211.931 144.232C207.589 144.232 203.747 143.323 200.403 141.504C197.117 139.627 194.536 137.016 192.659 133.672C190.84 130.269 189.931 126.28 189.931 121.704V120.648C189.931 116.072 190.84 112.112 192.659 108.768C194.477 105.365 197.029 102.755 200.315 100.936C203.6 99.0587 207.413 98.12 211.755 98.12C216.037 98.12 219.763 99.088 222.931 101.024C226.099 102.901 228.563 105.541 230.323 108.944C232.083 112.288 232.963 116.189 232.963 120.648V124.432H201.195C201.312 127.424 202.427 129.859 204.539 131.736C206.651 133.613 209.232 134.552 212.283 134.552C215.392 134.552 217.68 133.877 219.147 132.528C220.613 131.179 221.728 129.683 222.491 128.04L231.555 132.792C230.733 134.317 229.531 135.989 227.947 137.808C226.421 139.568 224.368 141.093 221.787 142.384C219.205 143.616 215.92 144.232 211.931 144.232ZM201.283 116.16H221.699C221.464 113.637 220.437 111.613 218.619 110.088C216.859 108.563 214.541 107.8 211.667 107.8C208.675 107.8 206.299 108.563 204.539 110.088C202.779 111.613 201.693 113.637 201.283 116.16ZM260.836 144.232C256.612 144.232 252.769 143.352 249.308 141.592C245.905 139.832 243.207 137.28 241.212 133.936C239.217 130.592 238.22 126.544 238.22 121.792V120.56C238.22 115.808 239.217 111.76 241.212 108.416C243.207 105.072 245.905 102.52 249.308 100.76C252.769 99 256.612 98.12 260.836 98.12C265.001 98.12 268.58 98.8533 271.572 100.32C274.564 101.787 276.969 103.811 278.788 106.392C280.665 108.915 281.897 111.789 282.484 115.016L271.748 117.304C271.513 115.544 270.985 113.96 270.164 112.552C269.343 111.144 268.169 110.029 266.644 109.208C265.177 108.387 263.329 107.976 261.1 107.976C258.871 107.976 256.847 108.475 255.028 109.472C253.268 110.411 251.86 111.848 250.804 113.784C249.807 115.661 249.308 117.979 249.308 120.736V121.616C249.308 124.373 249.807 126.72 250.804 128.656C251.86 130.533 253.268 131.971 255.028 132.968C256.847 133.907 258.871 134.376 261.1 134.376C264.444 134.376 266.967 133.525 268.668 131.824C270.428 130.064 271.543 127.776 272.012 124.96L282.748 127.512C281.985 130.621 280.665 133.467 278.788 136.048C276.969 138.571 274.564 140.565 271.572 142.032C268.58 143.499 265.001 144.232 260.836 144.232ZM304.653 143C301.779 143 299.432 142.12 297.613 140.36C295.853 138.541 294.973 136.136 294.973 133.144V108.504H284.061V99.352H294.973V85.8H306.061V99.352H318.029V108.504H306.061V131.208C306.061 132.968 306.883 133.848 308.525 133.848H316.973V143H304.653ZM343.694 144.232C338.004 144.232 333.34 143 329.702 140.536C326.065 138.072 323.865 134.552 323.102 129.976L333.31 127.336C333.721 129.389 334.396 131.003 335.334 132.176C336.332 133.349 337.534 134.2 338.942 134.728C340.409 135.197 341.993 135.432 343.694 135.432C346.276 135.432 348.182 134.992 349.414 134.112C350.646 133.173 351.262 132.029 351.262 130.68C351.262 129.331 350.676 128.304 349.502 127.6C348.329 126.837 346.452 126.221 343.87 125.752L341.406 125.312C338.356 124.725 335.569 123.933 333.046 122.936C330.524 121.88 328.5 120.443 326.974 118.624C325.449 116.805 324.686 114.459 324.686 111.584C324.686 107.243 326.27 103.928 329.438 101.64C332.606 99.2933 336.772 98.12 341.934 98.12C346.804 98.12 350.852 99.2053 354.078 101.376C357.305 103.547 359.417 106.392 360.414 109.912L350.118 113.08C349.649 110.851 348.681 109.267 347.214 108.328C345.806 107.389 344.046 106.92 341.934 106.92C339.822 106.92 338.209 107.301 337.094 108.064C335.98 108.768 335.422 109.765 335.422 111.056C335.422 112.464 336.009 113.52 337.182 114.224C338.356 114.869 339.94 115.368 341.934 115.72L344.398 116.16C347.684 116.747 350.646 117.539 353.286 118.536C355.985 119.475 358.097 120.853 359.622 122.672C361.206 124.432 361.998 126.837 361.998 129.888C361.998 134.464 360.326 138.013 356.982 140.536C353.697 143 349.268 144.232 343.694 144.232Z" fill="black"/>
</svg>
