<svg width="1440" height="630" viewBox="0 0 1440 630" fill="none" xmlns="http://www.w3.org/2000/svg">
<path opacity="0.13" d="M1283.05 241.847C1365.05 258.801 1420.92 273.706 1440 288.113C1423.16 304.61 1370.5 324.533 1293.82 351.169C1205.55 383.614 1118.13 424.613 1042.21 471.421C941.493 535.374 939.902 459.785 939.093 500.676C934.913 561.299 920.929 614.768 897.426 630C873.114 598.983 840.508 539.303 800.014 491.169C759.521 490.92 713.053 535.526 660.99 591.971C608.131 625.732 548.448 613.419 482.456 564.127C415.654 502.663 343.835 457.911 270.574 444.248C202.586 461.846 140.908 494.889 92.7279 525.048C61.6732 543.933 52.8544 541.358 69.4403 520.769C103.192 486.698 154.271 446.936 212.861 408.591C259.868 370.421 289.48 338.365 290.693 312.457C255.971 287.961 191.92 267.591 109.921 250.638C-6.30193 227.316 -38.8534 208.002 53.5691 217.396C139.425 226.362 228.274 238.206 308.668 246.149C374.297 240.611 421.263 218.853 450.754 177.753C462.728 125.373 464.656 72.2308 462.822 36.974C454.475 32.9769 450.376 62.5147 453.801 111.552C457.28 148.418 470.239 151.094 492.812 110.796C516.005 47.8192 547.963 -0.236242 588.443 0.000873669C628.951 48.124 676.065 111.236 729.235 148.808C783.024 140.131 843.731 96.315 910.425 48.124C977.187 21.2284 1047.98 33.2648 1118.73 76.4594C1182.97 134.27 1239.18 184.934 1280.29 215.753C1303.87 223.59 1304.93 213.693 1281.46 196.812C1243.23 176.133 1190.69 163.052 1134.51 159.986C1093.54 162.73 1073.06 173.643 1082.53 189.123C1127.08 206.687 1198.35 224.888 1283.03 241.842C1283.05 241.846 1283.05 241.847 1283.05 241.847Z" stroke="url(#paint0_linear_719_4273)" stroke-linecap="round"/>
<path opacity="0.32" d="M1165.74 359.033C1232.47 372.6 1283.5 390.045 1312.46 410.177C1319.89 429.332 1301.81 449.041 1262.29 466.362C1207.03 478.952 1140.94 484.665 1071.25 480.532C1001.77 469.337 937.691 449.329 881.919 424.686C834.481 405.813 796.09 396.548 765.198 404.672C741.424 432.754 721.481 476.767 702.684 526.126C687.096 565.064 669.377 580.719 647.748 565.301C626.834 526.403 600.525 477.986 568.122 442.052C535.733 437.456 498.785 463.906 458.602 507.253C419.146 550.589 377.924 573.6 337.376 568.705C300.024 538.767 266.623 493.5 240.464 447.037C217.365 398.005 244.428 397.604 293.026 421.4C380.311 443.638 322.759 411.024 227.222 390.711C158.761 377.144 102.963 364.171 67.1074 350.87C51.4115 336.242 61.2147 318.853 93.5234 296.773C142.971 271.018 205.417 239.008 273.703 201.718C343.849 164.83 410.341 129.725 469.686 103.372C521.763 91.437 565.048 97.235 600.579 121.195C629.099 153.539 653.101 186.645 675.094 206.647C693.703 201.605 713.619 170.882 736.637 122.313C758.873 73.7436 785.829 44.5332 818.232 49.1175C850.622 85.0405 886.922 136.195 925.784 180.338C963.851 200.996 1002.87 193.069 1040.4 164.073C1089.23 108.729 1141.33 97.5116 1133.34 146.837C1116.45 189.258 1088.38 228.738 1051.96 260.839C1017.4 285.872 983.996 302.498 958.281 313.411C949.732 319.593 958.349 324.561 986.531 330.986C1034.89 336.428 1097.25 345.467 1165.71 359.028C1165.73 359.031 1165.74 359.033 1165.74 359.033Z" stroke="url(#paint1_linear_719_4273)" stroke-linecap="round"/>
<path opacity="0.26" d="M1048.4 317.522C1099.15 327.689 1141.37 333.645 1171.96 335.689C1195.07 337.095 1155.32 328.045 1101.63 325.132C1057.1 328.937 1008.88 338.258 959.859 355.093C909.913 379.127 861.895 410.11 817.18 445.327C773.895 479.24 734.278 507.937 698.504 525.32C664.078 528.069 632.619 514.44 603.91 486.325C575.674 451.927 549.339 417.641 525.04 392.93C500.741 386.155 479.637 397.52 462.054 422.519C444.942 455.98 432.199 487.607 424.526 510.184C418.189 521.085 417.784 516.97 423.636 500.078C430.891 473.374 444.038 441.488 462.135 409.257C479.314 378.11 498.718 351.92 517.96 331.489C535.45 310.256 521.776 289.175 482.361 281.107C442.407 276.026 395.265 268.704 344.51 258.531C292.783 248.357 247.813 235.824 213.077 221.721C187.483 208.24 175.927 194.464 178.192 182.106C191.582 172.424 216.798 166.654 251.035 166.716C292.123 171.464 337.97 183.049 385.637 200.861C435.044 219.762 483.319 239.59 528.802 255.697C573.381 262.008 614.495 257.006 651.726 238.652C687.824 208.624 720.713 171.21 750.446 133.819C779.761 104.891 806.676 91.4545 830.975 98.2236C855.274 122.929 875.797 159.275 892.302 197.598C886.922 173.818 824.057 187.328 826.768 217.577C842.315 239.29 867.707 259.236 902.672 276.297C946.779 293.437 996.672 307.348 1048.4 317.522Z" stroke="url(#paint2_linear_719_4273)" stroke-linecap="round"/>
<path opacity="0.7" d="M931.111 266.136C997.846 279.696 1044.46 301.229 1066.14 330.383C1069.93 360.965 1050.08 398.903 1014.45 436.966C968.611 464.534 916.979 475.311 867.936 459.808C817.1 425.579 773.033 379.754 740.643 343.819C708.24 339.224 690.589 363.319 685.289 400.055C678.723 449.127 668.555 433.048 633.765 393.789C588.336 364.725 528.587 341.521 461.852 327.961C367.758 313.079 309.329 322.49 345.549 321.389C386.15 302.973 434.168 267.508 481.135 219.034C530.286 172.356 573.584 142.756 605.987 147.346C638.391 183.269 656.81 234.594 663.795 278.77C674.232 306.027 700.783 269.371 746.59 253.907C798.249 248.256 862.624 252.569 931.084 266.13C931.102 266.134 931.111 266.136 931.111 266.136Z" stroke="url(#paint3_linear_719_4273)" stroke-linecap="round"/>
<defs>
<linearGradient id="paint0_linear_719_4273" x1="72000" y1="0" x2="72000" y2="63000" gradientUnits="userSpaceOnUse">
<stop stop-color="#72B5FB"/>
<stop offset="0.9999" stop-color="#2E6BCE"/>
<stop offset="1" stop-color="#2D6ACD"/>
</linearGradient>
<linearGradient id="paint1_linear_719_4273" x1="62776.2" y1="48.6465" x2="62776.2" y2="52300.4" gradientUnits="userSpaceOnUse">
<stop stop-color="#72B5FB"/>
<stop offset="0.9999" stop-color="#2E6BCE"/>
<stop offset="1" stop-color="#2D6ACD"/>
</linearGradient>
<linearGradient id="paint2_linear_719_4273" x1="50215.8" y1="96.5" x2="50215.8" y2="43013.2" gradientUnits="userSpaceOnUse">
<stop stop-color="#72B5FB"/>
<stop offset="0.9999" stop-color="#2E6BCE"/>
<stop offset="1" stop-color="#2D6ACD"/>
</linearGradient>
<linearGradient id="paint3_linear_719_4273" x1="36930" y1="146.879" x2="36930" y2="32152.2" gradientUnits="userSpaceOnUse">
<stop stop-color="#72B5FB"/>
<stop offset="0.9999" stop-color="#2E6BCE"/>
<stop offset="1" stop-color="#2D6ACD"/>
</linearGradient>
</defs>
</svg>
