<svg width="1440" height="208" viewBox="0 0 1440 208" fill="none" xmlns="http://www.w3.org/2000/svg">
<g clip-path="url(#clip0_720_8422)" filter="url(#filter0_d_720_8422)">
<path d="M1440 159L1146.2 159V139L852.4 139V151L558.6 151V149L264.8 149V167L-29 167V163V200L264.8 200L558.6 200L852.4 200L1146.2 200L1440 200V159Z" fill="#FDFDFD"/>
<path d="M1440 131L1146.2 131V115L852.4 115V117L558.6 117V127L264.8 127V139L-29 139V149V165V169L264.8 169V151L558.6 151V153L852.4 153V141L1146.2 141V161L1440 161V131Z" fill="#D1D6F2"/>
<path d="M1440 91L1146.2 91V59L852.4 59V79L558.6 79L264.8 79V97L-29 97V123V151V141L264.8 141V129L558.6 129V119L852.4 119V117L1146.2 117V133L1440 133V91Z" fill="#A4B0E6"/>
<path d="M1440 63L1146.2 63V41L852.4 41V55L558.6 55V67L264.8 67V75L-29 75V105V125V99L264.8 99V81L558.6 81L852.4 81V61L1146.2 61V93L1440 93V63Z" fill="#728CDA"/>
<path d="M1440 -1L1146.2 -1L852.4 -1L558.6 -1L264.8 -1L-29 -1V107V77L264.8 77V69L558.6 69V57L852.4 57V43L1146.2 43V65L1440 65V-1Z" fill="#2D6ACD"/>
</g>
<defs>
<filter id="filter0_d_720_8422" x="-33" y="0" width="1477" height="208" filterUnits="userSpaceOnUse" color-interpolation-filters="sRGB">
<feFlood flood-opacity="0" result="BackgroundImageFix"/>
<feColorMatrix in="SourceAlpha" type="matrix" values="0 0 0 0 0 0 0 0 0 0 0 0 0 0 0 0 0 0 127 0" result="hardAlpha"/>
<feOffset dy="4"/>
<feGaussianBlur stdDeviation="2"/>
<feComposite in2="hardAlpha" operator="out"/>
<feColorMatrix type="matrix" values="0 0 0 0 0 0 0 0 0 0 0 0 0 0 0 0 0 0 0.25 0"/>
<feBlend mode="normal" in2="BackgroundImageFix" result="effect1_dropShadow_720_8422"/>
<feBlend mode="normal" in="SourceGraphic" in2="effect1_dropShadow_720_8422" result="shape"/>
</filter>
<clipPath id="clip0_720_8422">
<rect width="1469" height="200" fill="white" transform="matrix(-1 0 0 -1 1440 200)"/>
</clipPath>
</defs>
</svg>
