<svg version="1.1" id="Layer_1" xmlns="http://www.w3.org/2000/svg" xmlns:xlink="http://www.w3.org/1999/xlink" x="0px" y="0px"
	 width="100%" viewBox="0 0 1024 1024" enable-background="new 0 0 1024 1024" xml:space="preserve">
<path fill="#000000" opacity="1.000000" stroke="none" 
	d="
M595.000000,1025.000000 
	C396.666656,1025.000000 198.833328,1025.000000 1.000000,1025.000000 
	C1.000000,683.666687 1.000000,342.333344 1.000000,1.000000 
	C342.333344,1.000000 683.666687,1.000000 1025.000000,1.000000 
	C1025.000000,342.333344 1025.000000,683.666687 1025.000000,1025.000000 
	C881.833313,1025.000000 738.666687,1025.000000 595.000000,1025.000000 
M439.805206,683.066772 
	C439.834503,673.494019 438.662659,672.325745 430.037354,673.761414 
	C430.037354,676.819763 430.037354,679.943420 429.528229,683.125061 
	C429.715393,683.308228 429.902527,683.491394 430.925354,683.816101 
	C433.599640,684.108765 436.273956,684.401428 439.482727,684.883667 
	C439.553009,684.571838 439.623291,684.260071 439.805206,683.066772 
M462.959656,841.003235 
	C496.399963,840.572815 529.840271,840.142395 563.280579,839.711975 
	C562.812317,839.180969 562.338440,839.019714 561.864624,839.019531 
	C529.589905,839.008118 497.315155,839.001526 465.040497,839.048157 
	C464.015686,839.049622 462.991638,839.610229 461.142700,840.064209 
	C460.697968,843.636597 460.253265,847.208984 459.812042,850.753479 
	C494.690521,851.272888 528.468140,851.775879 562.245728,852.278870 
	C562.251099,851.509460 562.256531,850.740112 562.261963,849.970703 
	C541.057556,849.970703 519.853210,849.960876 498.648865,849.975464 
	C489.826019,849.981567 481.002014,850.137329 472.181091,850.023376 
	C468.911957,849.981201 465.650269,849.361511 462.165802,848.981262 
	C461.192596,846.206848 463.038544,845.992798 465.570770,846.004883 
	C479.220886,846.070068 492.871490,846.029297 506.521942,846.025940 
	C511.098602,846.024780 515.675293,846.025818 520.251953,846.025818 
	C520.242859,845.348755 520.233765,844.671753 520.224670,843.994690 
	C511.346832,843.994690 502.468994,843.987366 493.591156,843.996704 
	C484.268951,844.006531 474.946686,844.020203 465.624573,844.060608 
	C463.556702,844.069580 461.441315,844.256348 462.959656,841.003235 
M382.495544,209.028717 
	C382.320801,209.347672 382.146027,209.666611 381.268982,210.123276 
	C380.193665,210.487625 379.118378,210.851974 377.486145,211.029587 
	C377.328308,211.355087 377.170471,211.680573 376.536469,212.156616 
	C376.536469,212.156616 376.045471,212.247879 375.500183,212.029831 
	C375.330048,212.351547 375.159882,212.673248 374.232574,213.136459 
	C368.169861,216.168396 362.107147,219.200333 355.489441,222.027252 
	C355.333099,222.354736 355.176788,222.682236 354.303192,223.154800 
	C351.550598,224.852371 348.797974,226.549957 345.499023,228.026520 
	C345.329590,228.349487 345.160126,228.672455 344.323090,229.143311 
	C342.897186,230.177887 341.471283,231.212448 339.500183,232.029709 
	C339.329285,232.351059 339.158386,232.672409 338.350555,233.306274 
	C328.917847,241.239304 319.485168,249.172333 309.330597,257.046661 
	C309.581635,258.268494 309.832672,259.490295 310.826813,260.929504 
	C314.335419,258.295898 317.903381,255.737183 321.340515,253.013412 
	C328.930695,246.998596 336.135498,240.439697 344.075470,234.936630 
	C358.712433,224.791977 374.402985,216.436630 391.543976,209.842575 
	C392.208038,209.393173 392.872101,208.943771 394.793152,207.643692 
	C392.450256,207.365189 391.232880,207.220474 389.359436,207.155823 
	C388.920105,207.171249 388.480804,207.186676 387.480042,207.025345 
	C387.324982,207.352585 387.169922,207.679810 386.306427,208.153061 
	C385.218872,208.510696 384.131287,208.868317 382.495544,209.028717 
M570.856934,717.500061 
	C570.856934,685.777039 570.856934,654.054016 570.856934,622.597961 
	C573.432129,621.901184 574.684814,621.562256 575.798828,621.260864 
	C575.566711,623.897827 575.197937,626.152832 575.195251,628.408264 
	C575.156555,660.906189 575.165527,693.404114 575.166687,725.902100 
	C575.167175,740.267944 575.170776,740.270264 589.727417,739.760498 
	C590.012268,739.750549 590.288269,739.490906 590.916992,739.169556 
	C590.916992,737.539062 590.916626,735.740417 590.917053,733.941833 
	C590.926208,695.110962 590.943604,656.280090 590.927856,617.449219 
	C590.926697,614.589539 590.787720,611.786438 595.129456,610.801331 
	C595.129456,653.919617 595.129456,696.755676 595.129456,739.548584 
	C600.668884,739.548584 605.588013,739.548584 610.882690,739.548584 
	C610.882690,737.977112 610.882812,736.676025 610.882751,735.374939 
	C610.880066,691.378357 610.862854,647.381714 610.933594,603.385254 
	C610.936096,601.813110 611.806885,600.242432 612.273010,598.671082 
	C613.012207,598.793152 613.751343,598.915222 614.490479,599.037354 
	C614.490479,653.831543 614.490479,708.625793 614.490479,763.516113 
	C620.256653,763.516113 624.967712,763.516113 629.938843,763.516113 
	C629.938843,704.591614 629.938843,645.982361 629.938843,587.150391 
	C631.409851,587.150391 632.615540,587.150391 634.269897,587.150391 
	C634.269897,646.146790 634.269897,704.877197 634.269897,763.643555 
	C638.319824,763.643555 641.917358,763.643555 645.885803,763.643555 
	C645.885803,762.643799 645.885925,761.851624 645.885803,761.059448 
	C645.873413,702.229919 645.955750,643.399902 645.681152,584.571594 
	C645.657410,579.486328 647.230896,574.968262 647.794250,570.164185 
	C648.230347,566.445740 649.962341,565.195496 653.244202,565.908386 
	C661.259399,567.649292 666.020752,563.801147 669.297241,557.041809 
	C669.999390,555.593262 670.753723,553.985901 671.940063,553.001221 
	C673.540771,551.672729 675.535461,550.111328 677.444641,549.992615 
	C683.587341,549.610413 689.768372,549.834839 695.934631,549.843872 
	C703.077393,549.854309 703.077393,549.862854 704.158142,541.753906 
	C687.089844,541.753906 670.090027,541.753906 653.064148,541.753906 
	C658.775940,533.169373 658.774719,532.980286 666.853516,532.927429 
	C685.320068,532.806458 703.787903,532.889160 722.480347,532.889160 
	C723.990906,528.162476 725.536804,523.325134 727.200562,518.119141 
	C707.604980,518.119141 688.461609,518.119141 669.315918,518.119141 
	C669.467163,514.030579 671.232422,512.294189 675.242065,512.804016 
	C677.703552,513.117004 680.234558,512.892456 682.734375,512.892944 
	C698.371155,512.895996 714.007996,512.894470 729.508545,512.894470 
	C730.417358,509.110474 731.220276,505.767212 732.089233,502.149109 
	C712.903625,502.149109 694.460022,502.149109 675.865479,502.149109 
	C676.847351,498.028870 676.847046,497.998901 680.933350,497.955780 
	C698.809875,497.767029 716.686584,497.597137 734.841492,497.417664 
	C736.241211,483.471588 737.540222,470.529724 738.895325,457.028442 
	C730.444885,457.028442 722.214478,457.028442 715.006409,457.028442 
	C713.575439,441.350861 712.401245,426.285309 710.772827,411.269012 
	C709.167175,396.460999 704.838684,382.301331 699.566650,368.414154 
	C698.622559,365.927490 697.187317,364.915833 694.376953,365.088348 
	C689.561218,365.383911 684.696350,364.925537 679.887573,365.273529 
	C673.826660,365.712128 668.815918,365.105438 667.672119,357.704437 
	C667.488159,356.514343 666.326538,355.489685 665.674622,354.355347 
	C660.146729,344.736816 654.632324,335.110565 648.771423,324.889526 
	C659.174255,324.889526 669.258240,324.830902 679.338928,324.985352 
	C680.288025,324.999878 681.567017,326.160065 682.101074,327.118225 
	C688.177368,338.020020 694.091125,349.012543 700.184875,359.904327 
	C701.032288,361.418854 702.538757,363.536499 703.872070,363.637817 
	C709.415710,364.058990 715.009827,363.814850 720.704590,363.814850 
	C709.867310,323.566711 664.780640,262.944611 651.664246,258.583221 
	C651.664246,270.644348 651.664246,282.810181 651.664246,296.460693 
	C649.568909,294.109680 647.305054,292.738037 647.035767,291.048523 
	C646.225586,285.965027 645.919006,280.758636 645.901978,275.598541 
	C645.810791,247.934570 645.870117,220.270111 645.864319,192.605820 
	C645.864014,191.166595 645.743103,189.727386 645.694397,188.643723 
	C641.658508,188.941895 637.978699,189.213760 634.099854,189.500320 
	C634.099854,220.085770 634.099854,250.363235 634.099854,280.687805 
	C629.720215,279.550354 628.721069,276.919983 628.756104,272.692688 
	C628.973450,246.418747 628.856873,220.142059 628.852722,193.866287 
	C628.850769,181.751846 628.852356,169.637405 628.852356,157.495117 
	C623.673279,157.495117 618.964844,157.495117 613.815613,157.495117 
	C613.815613,193.532547 613.815613,229.235123 613.815613,264.937683 
	C613.257324,265.029724 612.699036,265.121765 612.140747,265.213806 
	C611.736328,263.086548 610.987183,260.960480 610.979919,258.831879 
	C610.893616,233.667099 610.918152,208.501938 610.913818,183.336868 
	C610.913025,178.717987 610.913635,174.099121 610.913635,169.127365 
	C607.144470,169.127365 603.816528,169.414124 600.558777,169.058502 
	C595.958069,168.556259 595.022644,170.551758 595.051697,174.769806 
	C595.216187,198.600372 595.104370,222.432785 595.123108,246.264526 
	C595.124573,248.130341 595.403931,249.995911 595.553589,251.854462 
	C590.963379,251.392303 590.990356,251.392014 590.945129,247.274734 
	C590.579529,214.017303 590.211487,180.759872 589.801453,147.502975 
	C589.783081,146.012314 589.353760,144.526733 589.115784,143.038788 
	C588.511047,143.090363 587.906250,143.141937 587.301514,143.193497 
	C587.301514,150.158463 587.301514,157.123413 587.301514,163.652206 
	C582.703552,164.329208 579.027527,164.870468 575.156555,165.440430 
	C575.156555,190.688278 575.156555,215.658417 575.156555,240.628540 
	C574.639954,240.834915 574.123413,241.041290 573.606812,241.247665 
	C572.686890,239.283188 570.989563,237.327209 570.967957,235.352905 
	C570.764587,216.735535 570.847046,198.115051 570.847046,179.165848 
	C568.140747,179.165848 565.817749,179.406845 563.563721,179.115128 
	C559.023560,178.527557 557.958313,180.476593 558.028931,184.769928 
	C558.272522,199.598145 558.124634,214.432831 558.125854,229.265045 
	C558.125977,230.845032 558.125854,232.425018 558.125854,233.928619 
	C553.896484,234.518692 553.814819,232.241257 553.825745,229.680923 
	C553.888672,215.015381 553.896240,200.349579 553.916321,185.683868 
	C553.924744,179.547531 553.917725,173.411163 553.917725,167.567093 
	C548.050171,167.879028 542.708435,168.163010 536.539917,168.490952 
	C536.539917,195.781677 536.539917,222.819061 536.539917,250.177032 
	C528.137573,248.540726 520.618530,247.076462 512.642944,245.523270 
	C512.642944,224.392136 512.642944,203.329590 512.642944,182.424301 
	C507.227448,182.424301 502.303864,182.424301 497.099030,182.424301 
	C497.099030,196.532013 497.029419,210.343704 497.155029,224.153641 
	C497.181641,227.080215 496.511658,228.886078 492.781616,229.018478 
	C492.781616,206.067139 492.781616,183.176437 492.781616,160.318863 
	C487.989563,160.318863 483.725403,160.318863 479.113403,160.318863 
	C479.113403,183.652359 479.113403,206.761963 479.113403,229.574158 
	C474.774506,231.800278 473.530426,230.402328 473.802643,226.211395 
	C474.093689,221.730453 473.873383,217.216187 473.873810,212.716476 
	C473.874756,203.006500 473.874084,193.296539 473.874084,184.099960 
	C468.701599,184.099960 464.100677,184.099960 459.851440,184.099960 
	C459.851440,195.651443 459.851440,206.704483 459.851440,217.750748 
	C393.254181,221.393326 331.132172,260.581787 310.793762,289.382355 
	C315.130066,289.882721 319.323639,290.233154 323.471008,290.880005 
	C328.322021,291.636688 331.730194,289.848541 335.246185,286.417633 
	C341.319214,280.491577 347.772461,274.835327 354.650543,269.876465 
	C375.746704,254.666901 398.994690,243.850449 424.317047,237.795822 
	C435.952759,235.013702 447.750763,232.910233 459.475189,230.499023 
	C459.786163,231.008789 460.097168,231.518555 460.408173,232.028320 
	C459.545593,232.717087 458.762299,233.853348 457.807648,234.022522 
	C451.280823,235.179138 444.607056,235.675278 438.186462,237.232834 
	C413.443817,243.235046 389.681335,251.941315 368.562958,266.394989 
	C356.711060,274.506561 345.806000,284.001617 333.934540,293.295990 
	C342.921570,298.981323 350.611694,303.846252 358.485046,308.827057 
	C326.774780,341.235077 305.475586,378.324768 301.768158,423.946960 
	C296.992554,423.946960 292.558258,423.946960 287.793854,423.946960 
	C290.110046,405.621979 294.151154,388.080872 300.872314,371.158112 
	C307.564941,354.307159 317.186401,339.147736 327.915985,324.523895 
	C325.548401,322.814667 323.645996,321.441284 321.788391,320.100250 
	C293.691559,355.428528 278.756317,395.373962 277.381989,440.925079 
	C259.303864,440.925079 242.287201,440.925079 224.747147,440.925079 
	C225.274414,450.845367 225.753418,459.857849 226.262482,469.435486 
	C251.615067,469.435486 276.605835,469.435486 302.039490,469.435486 
	C301.621948,470.797760 301.061188,471.608215 301.243622,472.182709 
	C304.710083,483.098541 305.591827,494.559906 311.435638,505.100067 
	C315.693329,512.779480 319.418457,520.980774 323.612976,528.838562 
	C325.254272,531.913330 326.364441,535.331299 328.347260,538.149109 
	C330.856842,541.715271 334.138855,544.726929 336.852112,548.163696 
	C340.194031,552.396790 342.596191,557.845215 346.805237,560.711426 
	C348.771637,562.050476 348.639282,565.908997 352.228455,565.389526 
	C352.936127,565.287109 353.845856,567.990540 354.963837,569.094788 
	C366.081024,580.075073 379.489838,587.904236 392.809601,595.696411 
	C402.079376,601.119446 412.074829,605.302429 421.748932,610.033569 
	C425.968658,612.097290 430.113586,614.606201 434.772308,612.294373 
	C434.772308,614.952515 434.772308,617.482727 434.772308,620.102112 
	C406.577362,613.146667 381.488708,601.050293 359.797180,582.028137 
	C354.491211,587.077393 349.318634,591.999756 343.472748,597.562866 
	C342.903046,595.122131 342.672180,594.133057 342.441315,593.144043 
	C342.031219,593.122864 341.621155,593.101624 341.211060,593.080444 
	C341.158539,594.170288 340.639587,595.899902 341.124084,596.253113 
	C347.488251,600.892761 354.013947,605.309875 360.460663,609.837524 
	C382.337219,625.201843 406.494568,635.093689 432.751770,639.880859 
	C441.529541,641.481201 450.359772,642.793701 458.985840,644.208252 
	C458.985840,649.387878 458.985840,654.040100 458.985840,658.847168 
	C400.015350,650.416260 352.244324,622.516479 312.893280,577.040161 
	C325.163239,577.040161 336.107819,577.040161 348.345734,577.040161 
	C346.235443,574.087463 344.780823,571.826721 343.103546,569.745422 
	C336.740540,561.849670 329.735474,554.402710 324.022064,546.067078 
	C313.725098,531.044373 304.982574,515.105408 300.507965,497.229248 
	C299.712463,494.051239 298.231506,492.861053 295.020111,493.185242 
	C290.602142,493.631195 286.158722,493.994751 281.721924,494.050323 
	C271.732727,494.175507 261.740875,494.089630 251.453186,494.089630 
	C257.210388,522.192444 268.134949,547.743164 285.247437,571.179321 
	C268.017639,571.179321 251.438904,571.179321 234.099365,571.179321 
	C235.485046,574.173279 236.765198,576.610535 237.758789,579.159546 
	C239.434967,583.459717 242.102615,585.159729 247.029327,585.024780 
	C261.684326,584.623413 276.400604,585.533203 291.004425,584.577759 
	C298.385620,584.094788 301.961761,587.954041 305.973938,592.353821 
	C307.286865,593.793518 308.225037,595.608398 309.647705,596.909302 
	C320.097992,606.465393 330.261353,616.383301 341.216003,625.328918 
	C358.898956,639.768921 378.947266,650.284973 400.044128,658.938354 
	C418.940094,666.689087 438.637634,670.910706 459.224915,673.133362 
	C459.224915,687.780090 459.224915,702.190247 459.224915,716.473755 
	C464.707703,716.473755 469.757690,716.473755 475.242889,716.473755 
	C475.242889,684.884644 475.242889,653.649780 475.242889,622.414917 
	C475.507874,622.407898 475.772827,622.400818 476.037811,622.393799 
	C476.037811,625.250977 476.037811,628.108154 476.037811,631.610168 
	C476.709991,630.331299 477.041687,629.700195 477.373383,629.069092 
	C477.770813,629.105164 478.168243,629.141235 478.565674,629.177307 
	C478.565674,663.284180 478.565674,697.391052 478.565674,731.593140 
	C483.899353,731.593140 488.280212,731.593140 492.821350,731.593140 
	C492.821350,711.488586 492.716675,691.677002 492.863129,671.867310 
	C492.942749,661.099670 493.405457,650.333435 493.840210,639.572388 
	C493.877960,638.637451 495.000641,637.746338 495.619415,636.834900 
	C496.129303,637.677734 496.841492,638.464966 497.092682,639.378967 
	C497.348206,640.308777 497.149628,641.363342 497.149933,642.363281 
	C497.156830,664.361877 497.141541,686.360535 497.194458,708.359009 
	C497.202454,711.688599 497.527924,715.017456 497.673523,717.730713 
	C503.105743,717.730713 507.966553,717.730713 512.906555,717.730713 
	C512.906555,691.649048 512.898682,666.152710 512.915161,640.656372 
	C512.917603,636.877258 512.970703,636.877319 517.698120,637.482605 
	C517.698120,674.067566 517.698120,710.761902 517.698120,747.570557 
	C523.230530,747.570557 527.947815,747.570557 533.805359,747.570557 
	C533.805359,716.730164 533.801880,686.159851 533.808350,655.589600 
	C533.809631,649.256714 533.774536,642.921875 533.950134,636.593262 
	C533.975830,635.669189 535.087402,634.775269 535.696533,633.867432 
	C536.201721,634.697144 536.870361,635.473938 537.161682,636.372986 
	C537.406006,637.126770 537.209351,638.023193 537.209045,638.856506 
	C537.200134,661.021729 537.144348,683.187195 537.230957,705.352051 
	C537.244629,708.850342 537.901733,712.346069 538.262451,715.853516 
	C541.769226,715.853516 544.596558,715.865234 547.423767,715.851196 
	C554.808716,715.814514 554.805420,715.810059 554.812378,708.533264 
	C554.836426,683.368286 554.831665,658.203125 554.955383,633.038635 
	C554.964172,631.256042 555.925537,629.478149 556.443970,627.697998 
	C557.169250,627.850403 557.894531,628.002808 558.619812,628.155212 
	C558.619812,671.352722 558.619812,714.550232 558.619812,757.747742 
	C558.954163,757.756104 559.288452,757.764465 559.622803,757.772888 
	C559.774048,756.522034 559.925354,755.271240 560.076599,754.020447 
	C560.391846,754.360901 560.707153,754.701416 561.022400,755.041870 
	C562.350464,754.192200 563.678528,753.342529 565.139160,752.408081 
	C565.139160,754.793335 565.139160,757.421448 565.139160,760.049500 
	C565.454895,760.046082 565.770691,760.042725 566.086426,760.039307 
	C566.086426,757.429626 566.086426,754.820007 566.086426,752.210327 
	C566.322327,752.199036 566.558289,752.187744 566.794189,752.176453 
	C567.202209,754.485657 567.610291,756.794800 568.018311,759.104004 
	C568.513367,759.106628 569.008484,759.109253 569.503540,759.111877 
	C569.949768,752.573669 570.579590,746.041504 570.792236,739.495667 
	C571.019348,732.503784 570.852600,725.499207 570.856934,717.500061 
M518.131470,181.301544 
	C518.131470,195.120850 518.131470,208.940155 518.131470,222.711395 
	C522.753113,223.117752 527.718628,223.554337 532.578613,223.981644 
	C532.578613,196.935806 532.578613,170.597473 532.578613,144.321716 
	C527.655701,144.321716 523.064819,144.321716 518.128296,144.321716 
	C518.128296,156.473312 518.128296,168.405197 518.131470,181.301544 
M338.455353,657.922913 
	C355.522522,669.896179 373.897858,679.237488 393.739136,686.315125 
	C393.968933,681.450562 393.748352,678.323792 388.908295,676.294800 
	C378.309204,671.851624 367.660675,667.185852 357.874207,661.228088 
	C344.676361,653.193542 332.165985,644.004456 319.573090,635.013184 
	C314.039276,631.062073 309.029633,626.376709 303.887146,622.111938 
	C302.538788,623.860168 301.353455,625.396973 299.468964,627.840271 
	C312.270355,637.888000 324.993683,647.874451 338.455353,657.922913 
M439.488922,852.837708 
	C443.908966,852.837708 448.329010,852.837708 452.833221,852.837708 
	C452.833221,849.845947 452.638123,847.499878 452.877014,845.198914 
	C453.277954,841.337036 451.989349,839.952637 447.885101,840.021790 
	C433.738922,840.260498 419.585999,840.099060 405.435638,840.090393 
	C403.682465,840.089294 401.929321,840.090210 400.331665,840.090210 
	C400.331665,844.708862 400.331665,848.633423 400.331665,852.836304 
	C413.248444,852.836304 425.870789,852.836304 439.488922,852.837708 
M217.059235,483.658325 
	C216.845123,487.387177 219.707565,485.851776 221.243301,485.857056 
	C244.887924,485.938416 268.532959,485.904785 292.177887,485.877075 
	C293.388458,485.875641 294.598877,485.686554 297.479248,485.444489 
	C295.031891,482.365295 293.381073,478.438568 291.668488,478.411469 
	C266.621735,478.015015 241.566788,478.138977 216.638672,478.138977 
	C216.865448,480.541809 216.970810,481.658203 217.059235,483.658325 
M276.356598,351.013977 
	C278.955902,345.920715 281.555237,340.827454 284.401245,335.250854 
	C277.681030,335.570374 271.640747,335.806915 265.610992,336.203796 
	C264.790588,336.257751 263.624146,336.924835 263.291443,337.627136 
	C259.088867,346.497803 255.009949,355.427032 250.689346,364.797058 
	C258.128326,364.797058 264.425079,364.797058 270.792023,364.797058 
	C272.530487,360.357574 274.230438,356.016449 276.356598,351.013977 
M708.469971,279.921600 
	C712.042480,279.921600 715.614929,279.921600 720.757385,279.921600 
	C717.255371,275.655273 714.945557,270.068329 711.797241,269.547150 
	C703.674011,268.202423 695.180115,269.096863 687.221619,269.096863 
	C690.879456,279.015625 698.313782,281.251404 708.469971,279.921600 
M662.451294,602.225403 
	C660.060669,604.580078 657.668518,606.933228 655.279724,609.289734 
	C650.761902,613.746521 650.827576,614.206421 656.327576,617.945984 
	C656.857605,618.306335 657.224426,618.906738 657.973938,619.734924 
	C661.795715,615.393738 665.437805,611.256714 669.409973,606.744690 
	C666.956665,605.189575 664.980164,603.936768 662.451294,602.225403 
M253.925018,408.778442 
	C254.331543,406.658203 254.738068,404.537964 255.160324,402.335663 
	C244.746414,401.832306 242.506058,404.506683 244.776779,413.729492 
	C247.715485,413.729492 250.654190,413.729492 253.909164,413.729492 
	C253.909164,412.258759 253.909164,410.970154 253.925018,408.778442 
z"/>
<path fill="#FBFBFB" opacity="1.000000" stroke="none" 
	d="
M570.857361,718.000122 
	C570.852600,725.499207 571.019348,732.503784 570.792236,739.495667 
	C570.579590,746.041504 569.949768,752.573669 569.503540,759.111877 
	C569.008484,759.109253 568.513367,759.106628 568.018311,759.104004 
	C567.610291,756.794800 567.202209,754.485657 566.794189,752.176453 
	C566.558289,752.187744 566.322327,752.199036 566.086426,752.210327 
	C566.086426,754.820007 566.086426,757.429626 566.086426,760.039307 
	C565.770691,760.042725 565.454895,760.046082 565.139160,760.049500 
	C565.139160,757.421448 565.139160,754.793335 565.139160,752.408081 
	C563.678528,753.342529 562.350464,754.192200 561.022400,755.041870 
	C560.707153,754.701416 560.391846,754.360901 560.076599,754.020447 
	C559.925354,755.271240 559.774048,756.522034 559.622803,757.772888 
	C559.288452,757.764465 558.954163,757.756104 558.619812,757.747742 
	C558.619812,714.550232 558.619812,671.352722 558.619812,628.155212 
	C557.894531,628.002808 557.169250,627.850403 556.443970,627.697998 
	C555.925537,629.478149 554.964172,631.256042 554.955383,633.038635 
	C554.831665,658.203125 554.836426,683.368286 554.812378,708.533264 
	C554.805420,715.810059 554.808716,715.814514 547.423767,715.851196 
	C544.596558,715.865234 541.769226,715.853516 538.262451,715.853516 
	C537.901733,712.346069 537.244629,708.850342 537.230957,705.352051 
	C537.144348,683.187195 537.200134,661.021729 537.209045,638.856506 
	C537.209351,638.023193 537.406006,637.126770 537.161682,636.372986 
	C536.870361,635.473938 536.201721,634.697144 535.696533,633.867432 
	C535.087402,634.775269 533.975830,635.669189 533.950134,636.593262 
	C533.774536,642.921875 533.809631,649.256714 533.808350,655.589600 
	C533.801880,686.159851 533.805359,716.730164 533.805359,747.570557 
	C527.947815,747.570557 523.230530,747.570557 517.698120,747.570557 
	C517.698120,710.761902 517.698120,674.067566 517.698120,637.482605 
	C512.970703,636.877319 512.917603,636.877258 512.915161,640.656372 
	C512.898682,666.152710 512.906555,691.649048 512.906555,717.730713 
	C507.966553,717.730713 503.105743,717.730713 497.673523,717.730713 
	C497.527924,715.017456 497.202454,711.688599 497.194458,708.359009 
	C497.141541,686.360535 497.156830,664.361877 497.149933,642.363281 
	C497.149628,641.363342 497.348206,640.308777 497.092682,639.378967 
	C496.841492,638.464966 496.129303,637.677734 495.619385,636.834900 
	C495.000641,637.746338 493.877960,638.637451 493.840210,639.572388 
	C493.405457,650.333435 492.942749,661.099670 492.863129,671.867310 
	C492.716675,691.677002 492.821350,711.488586 492.821350,731.593140 
	C488.280212,731.593140 483.899353,731.593140 478.565674,731.593140 
	C478.565674,697.391052 478.565674,663.284180 478.565674,629.177307 
	C478.168243,629.141235 477.770813,629.105164 477.373383,629.069092 
	C477.041687,629.700195 476.709991,630.331299 476.037811,631.610168 
	C476.037811,628.108154 476.037811,625.250977 476.037811,622.393799 
	C475.772827,622.400818 475.507874,622.407898 475.242889,622.414917 
	C475.242889,653.649780 475.242889,684.884644 475.242889,716.473755 
	C469.757690,716.473755 464.707703,716.473755 459.224915,716.473755 
	C459.224915,702.190247 459.224915,687.780090 459.224915,673.133362 
	C438.637634,670.910706 418.940094,666.689087 400.044128,658.938354 
	C378.947266,650.284973 358.898956,639.768921 341.216003,625.328918 
	C330.261353,616.383301 320.097992,606.465393 309.647705,596.909302 
	C308.225037,595.608398 307.286865,593.793518 305.973938,592.353821 
	C301.961761,587.954041 298.385620,584.094788 291.004425,584.577759 
	C276.400604,585.533203 261.684326,584.623413 247.029327,585.024780 
	C242.102615,585.159729 239.434967,583.459717 237.758789,579.159546 
	C236.765198,576.610535 235.485046,574.173279 234.099365,571.179321 
	C251.438904,571.179321 268.017639,571.179321 285.247437,571.179321 
	C268.134949,547.743164 257.210388,522.192444 251.453186,494.089630 
	C261.740875,494.089630 271.732727,494.175507 281.721924,494.050323 
	C286.158722,493.994751 290.602142,493.631195 295.020111,493.185242 
	C298.231506,492.861053 299.712463,494.051239 300.507965,497.229248 
	C304.982574,515.105408 313.725098,531.044373 324.022064,546.067078 
	C329.735474,554.402710 336.740540,561.849670 343.103546,569.745422 
	C344.780823,571.826721 346.235443,574.087463 348.345734,577.040161 
	C336.107819,577.040161 325.163239,577.040161 312.893280,577.040161 
	C352.244324,622.516479 400.015350,650.416260 458.985840,658.847168 
	C458.985840,654.040100 458.985840,649.387878 458.985840,644.208252 
	C450.359772,642.793701 441.529541,641.481201 432.751770,639.880859 
	C406.494568,635.093689 382.337219,625.201843 360.460663,609.837524 
	C354.013947,605.309875 347.488251,600.892761 341.124084,596.253113 
	C340.639587,595.899902 341.158539,594.170288 341.211060,593.080444 
	C341.621155,593.101624 342.031219,593.122864 342.441315,593.144043 
	C342.672180,594.133057 342.903046,595.122131 343.472748,597.562866 
	C349.318634,591.999756 354.491211,587.077393 359.797180,582.028137 
	C381.488708,601.050293 406.577362,613.146667 434.772308,620.102112 
	C434.772308,617.482727 434.772308,614.952515 434.772308,612.294373 
	C430.113586,614.606201 425.968658,612.097290 421.748932,610.033569 
	C412.074829,605.302429 402.079376,601.119446 392.809601,595.696411 
	C379.489838,587.904236 366.081024,580.075073 354.963837,569.094788 
	C353.845856,567.990540 352.936127,565.287109 352.228455,565.389526 
	C348.639282,565.908997 348.771637,562.050476 346.805237,560.711426 
	C342.596191,557.845215 340.194031,552.396790 336.852112,548.163696 
	C334.138855,544.726929 330.856842,541.715271 328.347260,538.149109 
	C326.364441,535.331299 325.254272,531.913330 323.612976,528.838562 
	C319.418457,520.980774 315.693329,512.779480 311.435638,505.100067 
	C305.591827,494.559906 304.710083,483.098541 301.243622,472.182709 
	C301.061188,471.608215 301.621948,470.797760 302.039490,469.435486 
	C276.605835,469.435486 251.615067,469.435486 226.262482,469.435486 
	C225.753418,459.857849 225.274414,450.845367 224.747147,440.925079 
	C242.287201,440.925079 259.303864,440.925079 277.381989,440.925079 
	C278.756317,395.373962 293.691559,355.428528 321.788391,320.100250 
	C323.645996,321.441284 325.548401,322.814667 327.915985,324.523895 
	C317.186401,339.147736 307.564941,354.307159 300.872314,371.158112 
	C294.151154,388.080872 290.110046,405.621979 287.793854,423.946960 
	C292.558258,423.946960 296.992554,423.946960 301.768158,423.946960 
	C305.475586,378.324768 326.774780,341.235077 358.485046,308.827057 
	C350.611694,303.846252 342.921570,298.981323 333.934540,293.295990 
	C345.806000,284.001617 356.711060,274.506561 368.562958,266.394989 
	C389.681335,251.941315 413.443817,243.235046 438.186462,237.232834 
	C444.607056,235.675278 451.280823,235.179138 457.807648,234.022522 
	C458.762299,233.853348 459.545593,232.717087 460.408173,232.028320 
	C460.097168,231.518555 459.786163,231.008789 459.475189,230.499023 
	C447.750763,232.910233 435.952759,235.013702 424.317047,237.795822 
	C398.994690,243.850449 375.746704,254.666901 354.650543,269.876465 
	C347.772461,274.835327 341.319214,280.491577 335.246185,286.417633 
	C331.730194,289.848541 328.322021,291.636688 323.471008,290.880005 
	C319.323639,290.233154 315.130066,289.882721 310.793762,289.382355 
	C331.132172,260.581787 393.254181,221.393326 459.851440,217.750748 
	C459.851440,206.704483 459.851440,195.651443 459.851440,184.099960 
	C464.100677,184.099960 468.701599,184.099960 473.874084,184.099960 
	C473.874084,193.296539 473.874756,203.006500 473.873810,212.716476 
	C473.873383,217.216187 474.093689,221.730453 473.802643,226.211395 
	C473.530426,230.402328 474.774506,231.800278 479.113403,229.574158 
	C479.113403,206.761963 479.113403,183.652359 479.113403,160.318863 
	C483.725403,160.318863 487.989563,160.318863 492.781616,160.318863 
	C492.781616,183.176437 492.781616,206.067139 492.781616,229.018478 
	C496.511658,228.886078 497.181641,227.080215 497.155029,224.153641 
	C497.029419,210.343704 497.099030,196.532013 497.099030,182.424301 
	C502.303864,182.424301 507.227448,182.424301 512.642944,182.424301 
	C512.642944,203.329590 512.642944,224.392136 512.642944,245.523270 
	C520.618530,247.076462 528.137573,248.540726 536.539917,250.177032 
	C536.539917,222.819061 536.539917,195.781677 536.539917,168.490952 
	C542.708435,168.163010 548.050171,167.879028 553.917725,167.567093 
	C553.917725,173.411163 553.924744,179.547531 553.916321,185.683868 
	C553.896240,200.349579 553.888672,215.015381 553.825745,229.680923 
	C553.814819,232.241257 553.896484,234.518692 558.125854,233.928619 
	C558.125854,232.425018 558.125977,230.845032 558.125854,229.265045 
	C558.124634,214.432831 558.272522,199.598145 558.028931,184.769928 
	C557.958313,180.476593 559.023560,178.527557 563.563721,179.115128 
	C565.817749,179.406845 568.140747,179.165848 570.847046,179.165848 
	C570.847046,198.115051 570.764587,216.735535 570.967957,235.352905 
	C570.989563,237.327209 572.686890,239.283188 573.606812,241.247665 
	C574.123413,241.041290 574.639954,240.834915 575.156555,240.628540 
	C575.156555,215.658417 575.156555,190.688278 575.156555,165.440430 
	C579.027527,164.870468 582.703552,164.329208 587.301514,163.652206 
	C587.301514,157.123413 587.301514,150.158463 587.301514,143.193497 
	C587.906250,143.141937 588.511047,143.090363 589.115784,143.038788 
	C589.353760,144.526733 589.783081,146.012314 589.801453,147.502975 
	C590.211487,180.759872 590.579529,214.017303 590.945129,247.274734 
	C590.990356,251.392014 590.963379,251.392303 595.553589,251.854462 
	C595.403931,249.995911 595.124573,248.130341 595.123108,246.264526 
	C595.104370,222.432785 595.216187,198.600372 595.051697,174.769806 
	C595.022644,170.551758 595.958069,168.556259 600.558777,169.058502 
	C603.816528,169.414124 607.144470,169.127365 610.913635,169.127365 
	C610.913635,174.099121 610.913025,178.717987 610.913818,183.336868 
	C610.918152,208.501938 610.893616,233.667099 610.979919,258.831879 
	C610.987183,260.960480 611.736328,263.086548 612.140747,265.213806 
	C612.699036,265.121765 613.257324,265.029724 613.815613,264.937683 
	C613.815613,229.235123 613.815613,193.532547 613.815613,157.495117 
	C618.964844,157.495117 623.673279,157.495117 628.852356,157.495117 
	C628.852356,169.637405 628.850769,181.751846 628.852722,193.866287 
	C628.856873,220.142059 628.973450,246.418747 628.756104,272.692688 
	C628.721069,276.919983 629.720215,279.550354 634.099854,280.687805 
	C634.099854,250.363235 634.099854,220.085770 634.099854,189.500320 
	C637.978699,189.213760 641.658508,188.941895 645.694397,188.643723 
	C645.743103,189.727386 645.864014,191.166595 645.864319,192.605820 
	C645.870117,220.270111 645.810791,247.934570 645.901978,275.598541 
	C645.919006,280.758636 646.225586,285.965027 647.035767,291.048523 
	C647.305054,292.738037 649.568909,294.109680 651.664246,296.460693 
	C651.664246,282.810181 651.664246,270.644348 651.664246,258.583221 
	C664.780640,262.944611 709.867310,323.566711 720.704590,363.814850 
	C715.009827,363.814850 709.415710,364.058990 703.872070,363.637817 
	C702.538757,363.536499 701.032288,361.418854 700.184875,359.904327 
	C694.091125,349.012543 688.177368,338.020020 682.101074,327.118225 
	C681.567017,326.160065 680.288025,324.999878 679.338928,324.985352 
	C669.258240,324.830902 659.174255,324.889526 648.771423,324.889526 
	C654.632324,335.110565 660.146729,344.736816 665.674622,354.355347 
	C666.326538,355.489685 667.488159,356.514343 667.672119,357.704437 
	C668.815918,365.105438 673.826660,365.712128 679.887573,365.273529 
	C684.696350,364.925537 689.561218,365.383911 694.376953,365.088348 
	C697.187317,364.915833 698.622559,365.927490 699.566650,368.414154 
	C704.838684,382.301331 709.167175,396.460999 710.772827,411.269012 
	C712.401245,426.285309 713.575439,441.350861 715.006409,457.028442 
	C722.214478,457.028442 730.444885,457.028442 738.895325,457.028442 
	C737.540222,470.529724 736.241211,483.471588 734.841492,497.417664 
	C716.686584,497.597137 698.809875,497.767029 680.933350,497.955780 
	C676.847046,497.998901 676.847351,498.028870 675.865479,502.149109 
	C694.460022,502.149109 712.903625,502.149109 732.089233,502.149109 
	C731.220276,505.767212 730.417358,509.110474 729.508545,512.894470 
	C714.007996,512.894470 698.371155,512.895996 682.734375,512.892944 
	C680.234558,512.892456 677.703552,513.117004 675.242065,512.804016 
	C671.232422,512.294189 669.467163,514.030579 669.315918,518.119141 
	C688.461609,518.119141 707.604980,518.119141 727.200562,518.119141 
	C725.536804,523.325134 723.990906,528.162476 722.480347,532.889160 
	C703.787903,532.889160 685.320068,532.806458 666.853516,532.927429 
	C658.774719,532.980286 658.775940,533.169373 653.064148,541.753906 
	C670.090027,541.753906 687.089844,541.753906 704.158142,541.753906 
	C703.077393,549.862854 703.077393,549.854309 695.934631,549.843872 
	C689.768372,549.834839 683.587341,549.610413 677.444641,549.992615 
	C675.535461,550.111328 673.540771,551.672729 671.940063,553.001221 
	C670.753723,553.985901 669.999390,555.593262 669.297241,557.041809 
	C666.020752,563.801147 661.259399,567.649292 653.244202,565.908386 
	C649.962341,565.195496 648.230347,566.445740 647.794250,570.164185 
	C647.230896,574.968262 645.657410,579.486328 645.681152,584.571594 
	C645.955750,643.399902 645.873413,702.229919 645.885803,761.059448 
	C645.885925,761.851624 645.885803,762.643799 645.885803,763.643555 
	C641.917358,763.643555 638.319824,763.643555 634.269897,763.643555 
	C634.269897,704.877197 634.269897,646.146790 634.269897,587.150391 
	C632.615540,587.150391 631.409851,587.150391 629.938843,587.150391 
	C629.938843,645.982361 629.938843,704.591614 629.938843,763.516113 
	C624.967712,763.516113 620.256653,763.516113 614.490479,763.516113 
	C614.490479,708.625793 614.490479,653.831543 614.490479,599.037354 
	C613.751343,598.915222 613.012207,598.793152 612.273010,598.671082 
	C611.806885,600.242432 610.936096,601.813110 610.933594,603.385254 
	C610.862854,647.381714 610.880066,691.378357 610.882751,735.374939 
	C610.882812,736.676025 610.882690,737.977112 610.882690,739.548584 
	C605.588013,739.548584 600.668884,739.548584 595.129456,739.548584 
	C595.129456,696.755676 595.129456,653.919617 595.129456,610.801331 
	C590.787720,611.786438 590.926697,614.589539 590.927856,617.449219 
	C590.943604,656.280090 590.926208,695.110962 590.917053,733.941833 
	C590.916626,735.740417 590.916992,737.539062 590.916992,739.169556 
	C590.288269,739.490906 590.012268,739.750549 589.727417,739.760498 
	C575.170776,740.270264 575.167175,740.267944 575.166687,725.902100 
	C575.165527,693.404114 575.156555,660.906189 575.195251,628.408264 
	C575.197937,626.152832 575.566711,623.897827 575.798828,621.260864 
	C574.684814,621.562256 573.432129,621.901184 570.856934,622.597961 
	C570.856934,654.054016 570.856934,685.777039 570.857361,718.000122 
M438.906677,499.499969 
	C438.906677,528.212646 438.906677,556.925293 438.906677,585.911255 
	C441.194458,583.896606 443.140594,582.315491 444.937073,580.579468 
	C456.872711,569.045471 468.769196,557.470886 480.706360,545.938416 
	C481.507263,545.164734 482.598541,544.699646 483.450867,543.969788 
	C488.661530,539.507446 492.410645,535.210388 492.368073,526.995605 
	C491.919403,440.377502 492.091766,353.756165 492.092712,267.135712 
	C492.092743,265.518616 492.092712,263.901489 492.092712,262.032684 
	C473.966736,261.719360 456.276459,261.087891 438.906799,266.499664 
	C438.906799,343.939850 438.906799,421.219910 438.906677,499.499969 
M500.994751,489.500000 
	C500.994751,510.219971 500.994751,530.939941 500.994751,552.118713 
	C505.700806,547.909912 509.834930,543.958679 514.249573,540.350586 
	C517.374817,537.796326 518.257019,534.871765 518.137451,530.890442 
	C517.604675,513.151611 517.244385,495.403625 517.151062,477.657227 
	C517.102356,468.397156 517.869995,459.135773 518.024170,449.870911 
	C518.187744,440.046753 518.175293,430.216125 518.035522,420.391235 
	C517.804443,404.144287 517.117798,387.899017 517.153381,371.654205 
	C517.203979,348.566071 517.792603,325.479614 518.036987,302.391235 
	C518.168152,289.997772 518.060303,277.601807 518.060303,265.255249 
	C511.604645,264.243530 506.522156,263.447021 500.995300,262.580872 
	C500.995300,338.338287 500.995300,413.419128 500.994751,489.500000 
M544.001892,480.500000 
	C544.001221,475.670135 543.998718,470.840240 544.000061,466.010376 
	C544.016602,406.553528 544.024841,347.096649 544.078674,287.639832 
	C544.081116,284.899689 544.214844,282.255096 541.148438,280.976410 
	C536.505554,279.040314 531.841980,277.153809 525.945496,274.737366 
	C525.945496,317.775848 525.848389,359.833649 525.972961,401.890839 
	C526.096130,443.491913 526.443176,485.092285 526.698669,527.799500 
	C531.858582,523.061523 535.636230,518.814880 540.183472,515.687073 
	C543.284729,513.553894 544.037537,511.230286 544.022888,507.980743 
	C543.982971,499.153992 544.004944,490.326935 544.001892,480.500000 
M552.989380,430.500000 
	C552.989380,454.879761 552.989380,479.259491 552.989380,504.126801 
	C560.668091,497.313751 567.944458,491.189056 574.790955,484.616577 
	C577.453369,482.060791 581.163452,480.236725 581.130859,475.221252 
	C580.926697,443.731995 581.081787,412.240540 580.953857,380.750458 
	C580.946228,378.878906 579.987366,376.542236 578.669006,375.224884 
	C572.472107,369.032715 566.035339,363.077209 559.592896,357.136230 
	C557.647278,355.342010 555.408203,353.866150 552.989502,352.002502 
	C552.989502,378.205536 552.989502,403.852783 552.989380,430.500000 
M650.018921,355.656647 
	C647.320557,351.232513 644.688110,346.766449 641.911743,342.391846 
	C632.721558,327.911407 621.337585,315.433807 608.773315,303.720581 
	C601.890381,297.303772 595.123108,294.615234 584.645020,296.686646 
	C603.212585,314.285217 621.094055,331.444061 633.126221,353.526398 
	C645.134644,375.565094 652.421204,399.005768 654.768250,423.767822 
	C660.697693,423.767822 665.802795,423.767822 670.822754,423.767822 
	C668.287598,399.822693 661.738403,377.326385 650.018921,355.656647 
M509.180573,607.785645 
	C505.509003,608.250916 501.837433,608.716187 498.165863,609.181458 
	C498.209564,609.409058 498.253265,609.636597 498.296997,609.864197 
	C499.167480,610.088196 500.037964,610.312256 502.200623,610.868774 
	C499.690369,610.868774 498.523773,610.825256 497.362000,610.881592 
	C496.282104,610.933899 495.207336,611.092712 494.130280,611.204651 
	C494.262665,611.619446 494.395020,612.034180 494.527405,612.448975 
	C532.057129,609.148254 565.349182,595.259033 594.392761,571.061523 
	C609.665833,558.336731 630.733398,529.641663 630.407349,522.573792 
	C629.953796,522.831116 629.347168,522.962341 629.141785,523.322388 
	C617.871033,543.079102 601.378357,558.076050 583.513367,571.382019 
	C569.354004,581.928040 554.151489,591.039429 537.722595,598.042358 
	C528.647217,601.910706 519.746826,605.868164 509.180573,607.785645 
M568.088867,311.506836 
	C568.088440,307.674591 568.153259,303.840454 568.043762,300.011322 
	C568.014709,298.997375 567.765259,297.582092 567.078369,297.060699 
	C562.611267,293.669739 557.995605,290.474518 552.981628,286.896301 
	C552.981628,297.771027 552.938354,308.054596 553.032532,318.336945 
	C553.045349,319.739258 553.326965,321.515839 554.196533,322.469818 
	C558.455322,327.142181 562.955322,331.594696 568.088562,336.862244 
	C568.088562,327.817291 568.088562,320.161133 568.088867,311.506836 
M632.968628,517.834961 
	C632.473083,519.202087 631.977539,520.569214 631.481995,521.936401 
	C631.811279,522.056885 632.140564,522.177429 632.469788,522.297974 
	C633.368042,520.353271 634.266296,518.408630 635.164612,516.463928 
	C634.927002,516.360657 634.689453,516.257385 634.451843,516.154114 
	C634.072815,516.475708 633.693726,516.797302 632.968628,517.834961 
z"/>
<path fill="#F6F6F6" opacity="1.000000" stroke="none" 
	d="
M518.129883,180.819321 
	C518.128296,168.405197 518.128296,156.473312 518.128296,144.321716 
	C523.064819,144.321716 527.655701,144.321716 532.578613,144.321716 
	C532.578613,170.597473 532.578613,196.935806 532.578613,223.981644 
	C527.718628,223.554337 522.753113,223.117752 518.131470,222.711395 
	C518.131470,208.940155 518.131470,195.120850 518.129883,180.819321 
z"/>
<path fill="#E9E9E9" opacity="1.000000" stroke="none" 
	d="
M338.086182,657.891907 
	C324.993683,647.874451 312.270355,637.888000 299.468964,627.840271 
	C301.353455,625.396973 302.538788,623.860168 303.887146,622.111938 
	C309.029633,626.376709 314.039276,631.062073 319.573090,635.013184 
	C332.165985,644.004456 344.676361,653.193542 357.874207,661.228088 
	C367.660675,667.185852 378.309204,671.851624 388.908295,676.294800 
	C393.748352,678.323792 393.968933,681.450562 393.739136,686.315125 
	C373.897858,679.237488 355.522522,669.896179 338.086182,657.891907 
z"/>
<path fill="#F4F4F4" opacity="1.000000" stroke="none" 
	d="
M438.991028,852.837036 
	C425.870789,852.836304 413.248444,852.836304 400.331665,852.836304 
	C400.331665,848.633423 400.331665,844.708862 400.331665,840.090210 
	C401.929321,840.090210 403.682465,840.089294 405.435638,840.090393 
	C419.585999,840.099060 433.738922,840.260498 447.885101,840.021790 
	C451.989349,839.952637 453.277954,841.337036 452.877014,845.198914 
	C452.638123,847.499878 452.833221,849.845947 452.833221,852.837708 
	C448.329010,852.837708 443.908966,852.837708 438.991028,852.837036 
z"/>
<path fill="#EEEEEE" opacity="1.000000" stroke="none" 
	d="
M217.067703,483.216431 
	C216.970810,481.658203 216.865448,480.541809 216.638672,478.138977 
	C241.566788,478.138977 266.621735,478.015015 291.668488,478.411469 
	C293.381073,478.438568 295.031891,482.365295 297.479248,485.444489 
	C294.598877,485.686554 293.388458,485.875641 292.177887,485.877075 
	C268.532959,485.904785 244.887924,485.938416 221.243301,485.857056 
	C219.707565,485.851776 216.845123,487.387177 217.067703,483.216431 
z"/>
<path fill="#F4F4F4" opacity="1.000000" stroke="none" 
	d="
M276.143494,351.344666 
	C274.230438,356.016449 272.530487,360.357574 270.792023,364.797058 
	C264.425079,364.797058 258.128326,364.797058 250.689346,364.797058 
	C255.009949,355.427032 259.088867,346.497803 263.291443,337.627136 
	C263.624146,336.924835 264.790588,336.257751 265.610992,336.203796 
	C271.640747,335.806915 277.681030,335.570374 284.401245,335.250854 
	C281.555237,340.827454 278.955902,345.920715 276.143494,351.344666 
z"/>
<path fill="#FFFFFF" opacity="1.000000" stroke="none" 
	d="
M378.043060,211.216324 
	C379.118378,210.851974 380.193665,210.487625 381.860718,210.037216 
	C382.769928,209.807556 382.967010,209.565826 383.043732,209.225952 
	C384.131287,208.868317 385.218872,208.510696 386.897217,208.051697 
	C387.781006,207.781250 387.965515,207.531830 388.041473,207.202103 
	C388.480804,207.186676 388.920105,207.171249 389.737915,207.394791 
	C390.382080,208.316986 390.647766,209.000214 390.913452,209.683426 
	C374.402985,216.436630 358.712433,224.791977 344.075470,234.936630 
	C336.135498,240.439697 328.930695,246.998596 321.340515,253.013412 
	C317.903381,255.737183 314.335419,258.295898 310.467041,260.458832 
	C310.089020,259.027222 310.070740,258.066315 310.052460,257.105377 
	C319.485168,249.172333 328.917847,241.239304 338.909607,233.139008 
	C339.793915,232.835999 339.986145,232.594421 340.045380,232.247025 
	C341.471283,231.212448 342.897186,230.177887 344.897003,229.057892 
	C345.794556,228.835541 345.986053,228.593903 346.045380,228.247528 
	C348.797974,226.549957 351.550598,224.852371 354.899597,223.063400 
	C355.808594,222.821594 355.991394,222.575027 356.044434,222.232269 
	C362.107147,219.200333 368.169861,216.168396 374.850861,213.052734 
	C375.794006,212.834717 375.986115,212.594330 376.045471,212.247879 
	C376.045471,212.247879 376.536469,212.156616 377.014771,212.062531 
	C377.805267,211.811966 377.988586,211.561249 378.043060,211.216324 
z"/>
<path fill="#F0F0F0" opacity="1.000000" stroke="none" 
	d="
M707.981934,279.921509 
	C698.313782,281.251404 690.879456,279.015625 687.221619,269.096863 
	C695.180115,269.096863 703.674011,268.202423 711.797241,269.547150 
	C714.945557,270.068329 717.255371,275.655273 720.757385,279.921600 
	C715.614929,279.921600 712.042480,279.921600 707.981934,279.921509 
z"/>
<path fill="#AAAAAA" opacity="1.000000" stroke="none" 
	d="
M462.030457,841.097229 
	C461.441315,844.256348 463.556702,844.069580 465.624573,844.060608 
	C474.946686,844.020203 484.268951,844.006531 493.591156,843.996704 
	C502.468994,843.987366 511.346832,843.994690 520.224670,843.994690 
	C520.233765,844.671753 520.242859,845.348755 520.251953,846.025818 
	C515.675293,846.025818 511.098602,846.024780 506.521942,846.025940 
	C492.871490,846.029297 479.220886,846.070068 465.570770,846.004883 
	C463.038544,845.992798 461.192596,846.206848 462.165802,848.981262 
	C465.650269,849.361511 468.911957,849.981201 472.181091,850.023376 
	C481.002014,850.137329 489.826019,849.981567 498.648865,849.975464 
	C519.853210,849.960876 541.057556,849.970703 562.261963,849.970703 
	C562.256531,850.740112 562.251099,851.509460 562.245728,852.278870 
	C528.468140,851.775879 494.690521,851.272888 459.812042,850.753479 
	C460.253265,847.208984 460.697968,843.636597 461.575226,840.283691 
	C462.015320,840.701233 462.022888,840.899231 462.030457,841.097229 
z"/>
<path fill="#E9E9E9" opacity="1.000000" stroke="none" 
	d="
M662.727478,602.454651 
	C664.980164,603.936768 666.956665,605.189575 669.409973,606.744690 
	C665.437805,611.256714 661.795715,615.393738 657.973938,619.734924 
	C657.224426,618.906738 656.857605,618.306335 656.327576,617.945984 
	C650.827576,614.206421 650.761902,613.746521 655.279724,609.289734 
	C657.668518,606.933228 660.060669,604.580078 662.727478,602.454651 
z"/>
<path fill="#B6B6B6" opacity="1.000000" stroke="none" 
	d="
M462.495056,841.050232 
	C462.022888,840.899231 462.015320,840.701233 461.987488,840.206726 
	C462.991638,839.610229 464.015686,839.049622 465.040497,839.048157 
	C497.315155,839.001526 529.589905,839.008118 561.864624,839.019531 
	C562.338440,839.019714 562.812317,839.180969 563.280579,839.711975 
	C529.840271,840.142395 496.399963,840.572815 462.495056,841.050232 
z"/>
<path fill="#EDEDED" opacity="1.000000" stroke="none" 
	d="
M253.917084,409.229980 
	C253.909164,410.970154 253.909164,412.258759 253.909164,413.729492 
	C250.654190,413.729492 247.715485,413.729492 244.775391,413.726440 
	C242.506058,404.506683 244.746414,401.832306 255.160324,402.335663 
	C254.738068,404.537964 254.331543,406.658203 253.917084,409.229980 
z"/>
<path fill="#FFFFFF" opacity="1.000000" stroke="none" 
	d="
M438.948273,684.694092 
	C436.273956,684.401428 433.599640,684.108765 430.584595,683.585693 
	C430.243866,683.355286 430.037354,683.067139 430.037354,683.067139 
	C430.037354,679.943420 430.037354,676.819763 430.037354,673.761414 
	C438.662659,672.325745 439.834503,673.494019 439.548584,683.535706 
	C439.025177,684.158569 438.910614,684.388367 438.948273,684.694092 
z"/>
<path fill="#C6C6C6" opacity="1.000000" stroke="none" 
	d="
M391.228699,209.763000 
	C390.647766,209.000214 390.382080,208.316986 390.065979,207.354767 
	C391.232880,207.220474 392.450256,207.365189 394.793152,207.643692 
	C392.872101,208.943771 392.208038,209.393173 391.228699,209.763000 
z"/>
<path fill="#C6C6C6" opacity="1.000000" stroke="none" 
	d="
M309.691528,257.076019 
	C310.070740,258.066315 310.089020,259.027222 310.095490,260.350159 
	C309.832672,259.490295 309.581635,258.268494 309.691528,257.076019 
z"/>
<path fill="#C6C6C6" opacity="1.000000" stroke="none" 
	d="
M382.769653,209.127335 
	C382.967010,209.565826 382.769928,209.807556 382.211884,209.968353 
	C382.146027,209.666611 382.320801,209.347672 382.769653,209.127335 
z"/>
<path fill="#C6C6C6" opacity="1.000000" stroke="none" 
	d="
M377.764587,211.122955 
	C377.988586,211.561249 377.805267,211.811966 377.252869,211.987274 
	C377.170471,211.680573 377.328308,211.355087 377.764587,211.122955 
z"/>
<path fill="#C6C6C6" opacity="1.000000" stroke="none" 
	d="
M375.772827,212.138855 
	C375.986115,212.594330 375.794006,212.834717 375.229431,212.981995 
	C375.159882,212.673248 375.330048,212.351547 375.772827,212.138855 
z"/>
<path fill="#C6C6C6" opacity="1.000000" stroke="none" 
	d="
M355.766937,222.129761 
	C355.991394,222.575027 355.808594,222.821594 355.258240,222.990875 
	C355.176788,222.682236 355.333099,222.354736 355.766937,222.129761 
z"/>
<path fill="#C6C6C6" opacity="1.000000" stroke="none" 
	d="
M387.760742,207.113724 
	C387.965515,207.531830 387.781006,207.781250 387.251404,207.978699 
	C387.169922,207.679810 387.324982,207.352585 387.760742,207.113724 
z"/>
<path fill="#C6C6C6" opacity="1.000000" stroke="none" 
	d="
M429.782776,683.096069 
	C430.037354,683.067139 430.243866,683.355286 430.166779,683.514893 
	C429.902527,683.491394 429.715393,683.308228 429.782776,683.096069 
z"/>
<path fill="#C6C6C6" opacity="1.000000" stroke="none" 
	d="
M439.215515,684.788818 
	C438.910614,684.388367 439.025177,684.158569 439.492798,683.976440 
	C439.623291,684.260071 439.553009,684.571838 439.215515,684.788818 
z"/>
<path fill="#C6C6C6" opacity="1.000000" stroke="none" 
	d="
M339.772766,232.138367 
	C339.986145,232.594421 339.793915,232.835999 339.228088,232.982758 
	C339.158386,232.672409 339.329285,232.351059 339.772766,232.138367 
z"/>
<path fill="#C6C6C6" opacity="1.000000" stroke="none" 
	d="
M345.772217,228.137024 
	C345.986053,228.593903 345.794556,228.835541 345.230774,228.983948 
	C345.160126,228.672455 345.329590,228.349487 345.772217,228.137024 
z"/>
<path fill="#000000" opacity="1.000000" stroke="none" 
	d="
M438.906738,498.999939 
	C438.906799,421.219910 438.906799,343.939850 438.906799,266.499664 
	C456.276459,261.087891 473.966736,261.719360 492.092712,262.032684 
	C492.092712,263.901489 492.092743,265.518616 492.092712,267.135712 
	C492.091766,353.756165 491.919403,440.377502 492.368073,526.995605 
	C492.410645,535.210388 488.661530,539.507446 483.450867,543.969788 
	C482.598541,544.699646 481.507263,545.164734 480.706360,545.938416 
	C468.769196,557.470886 456.872711,569.045471 444.937073,580.579468 
	C443.140594,582.315491 441.194458,583.896606 438.906677,585.911255 
	C438.906677,556.925293 438.906677,528.212646 438.906738,498.999939 
z"/>
<path fill="#000000" opacity="1.000000" stroke="none" 
	d="
M500.995026,489.000000 
	C500.995300,413.419128 500.995300,338.338287 500.995300,262.580872 
	C506.522156,263.447021 511.604645,264.243530 518.060303,265.255249 
	C518.060303,277.601807 518.168152,289.997772 518.036987,302.391235 
	C517.792603,325.479614 517.203979,348.566071 517.153381,371.654205 
	C517.117798,387.899017 517.804443,404.144287 518.035522,420.391235 
	C518.175293,430.216125 518.187744,440.046753 518.024170,449.870911 
	C517.869995,459.135773 517.102356,468.397156 517.151062,477.657227 
	C517.244385,495.403625 517.604675,513.151611 518.137451,530.890442 
	C518.257019,534.871765 517.374817,537.796326 514.249573,540.350586 
	C509.834930,543.958679 505.700806,547.909912 500.994751,552.118713 
	C500.994751,530.939941 500.994751,510.219971 500.995026,489.000000 
z"/>
<path fill="#000000" opacity="1.000000" stroke="none" 
	d="
M544.002136,481.000000 
	C544.004944,490.326935 543.982971,499.153992 544.022888,507.980743 
	C544.037537,511.230286 543.284729,513.553894 540.183472,515.687073 
	C535.636230,518.814880 531.858582,523.061523 526.698669,527.799500 
	C526.443176,485.092285 526.096130,443.491913 525.972961,401.890839 
	C525.848389,359.833649 525.945496,317.775848 525.945496,274.737366 
	C531.841980,277.153809 536.505554,279.040314 541.148438,280.976410 
	C544.214844,282.255096 544.081116,284.899689 544.078674,287.639832 
	C544.024841,347.096649 544.016602,406.553528 544.000061,466.010376 
	C543.998718,470.840240 544.001221,475.670135 544.002136,481.000000 
z"/>
<path fill="#000000" opacity="1.000000" stroke="none" 
	d="
M552.989441,430.000000 
	C552.989502,403.852783 552.989502,378.205536 552.989502,352.002502 
	C555.408203,353.866150 557.647278,355.342010 559.592896,357.136230 
	C566.035339,363.077209 572.472107,369.032715 578.669006,375.224884 
	C579.987366,376.542236 580.946228,378.878906 580.953857,380.750458 
	C581.081787,412.240540 580.926697,443.731995 581.130859,475.221252 
	C581.163452,480.236725 577.453369,482.060791 574.790955,484.616577 
	C567.944458,491.189056 560.668091,497.313751 552.989380,504.126801 
	C552.989380,479.259491 552.989380,454.879761 552.989441,430.000000 
z"/>
<path fill="#000000" opacity="1.000000" stroke="none" 
	d="
M650.053589,356.034241 
	C661.738403,377.326385 668.287598,399.822693 670.822754,423.767822 
	C665.802795,423.767822 660.697693,423.767822 654.768250,423.767822 
	C652.421204,399.005768 645.134644,375.565094 633.126221,353.526398 
	C621.094055,331.444061 603.212585,314.285217 584.645020,296.686646 
	C595.123108,294.615234 601.890381,297.303772 608.773315,303.720581 
	C621.337585,315.433807 632.721558,327.911407 641.911743,342.391846 
	C644.688110,346.766449 647.320557,351.232513 650.053589,356.034241 
z"/>
<path fill="#000000" opacity="1.000000" stroke="none" 
	d="
M509.553253,607.549011 
	C519.746826,605.868164 528.647217,601.910706 537.722595,598.042358 
	C554.151489,591.039429 569.354004,581.928040 583.513367,571.382019 
	C601.378357,558.076050 617.871033,543.079102 629.141785,523.322388 
	C629.347168,522.962341 629.953796,522.831116 630.407349,522.573792 
	C630.733398,529.641663 609.665833,558.336731 594.392761,571.061523 
	C565.349182,595.259033 532.057129,609.148254 494.527405,612.448975 
	C494.395020,612.034180 494.262665,611.619446 494.130280,611.204651 
	C495.207336,611.092712 496.282104,610.933899 497.362000,610.881592 
	C498.523773,610.825256 499.690369,610.868774 502.200623,610.868774 
	C500.037964,610.312256 499.167480,610.088196 498.296997,609.864197 
	C498.253265,609.636597 498.209564,609.409058 498.165863,609.181458 
	C501.837433,608.716187 505.509003,608.250916 509.553253,607.549011 
z"/>
<path fill="#000000" opacity="1.000000" stroke="none" 
	d="
M568.088745,312.005890 
	C568.088562,320.161133 568.088562,327.817291 568.088562,336.862244 
	C562.955322,331.594696 558.455322,327.142181 554.196533,322.469818 
	C553.326965,321.515839 553.045349,319.739258 553.032532,318.336945 
	C552.938354,308.054596 552.981628,297.771027 552.981628,286.896301 
	C557.995605,290.474518 562.611267,293.669739 567.078369,297.060699 
	C567.765259,297.582092 568.014709,298.997375 568.043762,300.011322 
	C568.153259,303.840454 568.088440,307.674591 568.088745,312.005890 
z"/>
<path fill="#000000" opacity="1.000000" stroke="none" 
	d="
M633.141602,517.476929 
	C633.693726,516.797302 634.072815,516.475708 634.451843,516.154114 
	C634.689453,516.257385 634.927002,516.360657 635.164612,516.463928 
	C634.266296,518.408630 633.368042,520.353271 632.469788,522.297974 
	C632.140564,522.177429 631.811279,522.056885 631.481995,521.936401 
	C631.977539,520.569214 632.473083,519.202087 633.141602,517.476929 
z"/>
</svg>